<svg width="430" height="272" viewBox="0 0 430 272" fill="none" xmlns="http://www.w3.org/2000/svg">
<path fill-rule="evenodd" clip-rule="evenodd" d="M317.197 219.468C315.16 221.876 312.152 223.663 309.844 225.864C307.42 228.177 304.79 230.197 302.375 232.482C291.725 219.179 277.137 211.022 264.498 199.984C258.507 194.75 254.092 187.652 250.862 180.367C249.206 176.632 247.982 172.788 247.025 168.809C246.593 167.017 246.172 165.231 245.89 163.415C245.549 161.215 245.46 161.027 244.008 159.31C243.383 158.571 242.172 156.413 240.947 156.65C239.917 156.851 238.032 160.057 237.381 160.848C234.249 164.657 231.213 168.581 227.916 172.242C222.871 177.844 218.279 183.357 213.595 189.294C204.014 201.441 193.679 212.876 183.25 224.306C182.477 225.154 180.673 227.64 179.562 227.974C178.211 228.38 176.015 226.686 174.654 225.739C171.369 223.454 168.781 220.626 165.973 217.793C160.494 212.266 156.783 204.507 154.287 197.125C152.793 192.707 151.822 188.126 150.28 183.723C149.637 181.887 148.18 179.632 148.92 178.033C149.14 177.556 150.542 176.29 151.036 176.194C151.621 176.079 152.595 176.898 152.798 176.841C154.737 176.299 153.661 174.224 154.815 173.108C155.469 172.474 158.795 172.567 159.788 172.219C163.419 170.946 166.677 168.518 170.109 167.068C184.48 161.001 199.025 155.099 211.43 145.191C214.648 142.622 216.786 140.691 220.624 139.03C224.504 137.352 228.404 135.855 232.362 134.391C235.855 133.099 239.366 131.887 242.974 130.961C246.875 129.96 252.41 128.69 256.308 129.98C263.962 132.513 266.434 138.959 269.483 145.759C273.607 154.958 278.594 163.664 284 172.132C294.4 188.424 307.049 203.044 317.197 219.468Z" fill="#D7D7FD"/>
<path fill-rule="evenodd" clip-rule="evenodd" d="M86.6641 75.4342C86.2429 75.2157 82.9542 76.5837 82.4022 76.793C80.1972 77.6291 78.1204 79.0182 76.0431 80.1484C77.6351 82.1285 79.2276 84.109 80.8191 86.0896C82.3796 82.1778 84.3852 78.95 86.6641 75.4342ZM87.7497 99.7727C87.208 99.8349 91.7812 111.066 92.3151 112.327C94.2585 116.914 96.2988 121.455 98.2679 126.03C100.176 130.464 102.596 134.543 105.034 138.684C107.119 142.226 109.264 147.723 112.41 150.347C110.424 141.341 110.685 130.987 104.988 123.426C99.0828 115.587 93.2442 107.933 87.7497 99.7727ZM317.198 219.868C308.373 205.587 297.326 192.953 288.124 178.926C282.971 171.072 277.956 163.118 273.619 154.758C270.464 148.676 268.503 140 263.63 135.351C261.483 133.302 259.189 131.297 256.308 130.38C252.365 129.124 246.935 130.369 242.974 131.361C235.593 133.211 228.382 136.083 221.39 139.1C214.298 142.16 208.247 147.656 201.84 152.071C194.966 156.808 187.525 160.259 179.824 163.28C173.118 165.91 167.153 169.687 160.483 172.334C159.154 172.862 156.442 172.785 155.327 173.473C154.126 174.213 154.599 176.401 153.14 177.208C152.482 177.572 152.263 176.252 151.758 176.274C151.14 176.3 150.577 177.041 149.981 177.51C147.557 179.422 149.042 180.696 150.002 183.326C153.131 191.895 154.812 200.614 159.205 208.704C162.816 215.353 167.985 221.312 174.071 225.714C174.997 226.385 178.015 228.98 179.101 228.808C180.079 228.653 182.069 225.995 182.745 225.273C185.81 221.998 188.611 218.475 191.674 215.194C196.406 210.125 200.962 204.919 205.555 199.781C210.887 193.815 215.606 187.056 220.408 180.682C222.617 177.749 225.461 175.361 227.916 172.642C231.218 168.986 234.249 165.056 237.381 161.248C238.329 160.096 239.916 157.148 241.389 157.183C242.42 157.208 244.24 159.69 244.78 160.468C246.786 163.361 246.777 168.584 247.774 172.194C250.209 180.998 254.598 189.596 260.619 196.389C266.605 203.145 274.274 207.949 281.355 213.379C289.025 219.262 296.292 225.283 302.375 232.882C304.79 230.597 307.42 228.576 309.844 226.264C312.153 224.062 315.161 222.276 317.198 219.868ZM203.605 260.272C205.32 260.29 208.226 261.368 209.76 260.719C205.208 255.571 201.027 251.154 195.268 247.381C189.29 243.466 183.333 239.586 177.528 235.411C165.829 226.995 157.223 217.015 152.336 203.001C151.078 199.392 150.235 195.607 149.313 191.897C148.817 189.899 147.829 180.551 146.152 179.744C145.158 179.266 137.681 184.637 136.496 185.306C133.726 186.872 130.946 188.086 128.082 189.311C121.926 191.945 115.58 193.954 109.052 195.631C101.226 197.642 95.8952 194.315 91.0469 188.029C85.5465 180.897 80.9756 172.85 75.9465 165.36C73.6595 161.953 71.7649 158.552 70.0759 154.795C68.9705 152.336 64.5863 145.703 66.1012 143.084C70.4232 146.447 71.9782 153.133 74.9223 157.636C78.5917 163.247 82.7269 168.538 86.4152 174.145C89.5167 178.859 92.6809 184.572 97.263 187.961C101.294 190.942 105.123 190.025 109.46 188.686C114.718 187.062 120.167 186.262 125.319 184.248C130.895 182.07 136.17 178.979 141.61 176.458C144.146 175.283 147.183 174.615 149.573 173.15C151.632 171.888 151.325 171.222 151.476 168.534C151.653 165.398 151.857 162.26 151.992 159.122C152.083 157.013 150.968 154.154 151.725 152.58C145.549 153.675 139.513 155.14 133.38 156.437C130.022 157.147 126.785 158.024 123.393 158.582C122.1 158.794 120.332 158.788 119.174 159.364C118.251 159.093 117.78 159.265 117.762 159.881C117.718 160.215 117.648 160.545 117.552 160.869C115.658 161.749 114.557 159.861 112.914 158.049C110.887 155.814 109.37 153.296 107.883 150.669C104.558 144.796 100.726 139.273 97.6491 133.234C94.5133 127.079 91.9665 120.488 89.3079 114.102C86.8689 108.243 85.307 101.906 82.6119 96.1859C81.4091 93.6324 79.8847 91.521 78.1046 89.3639C76.6357 87.5839 74.3757 83.744 72.1821 82.9263C71.6021 82.7102 70.0831 83.0734 69.4242 83.0254C68.1109 82.9296 66.9405 82.4368 65.5966 82.5447C62.6867 82.7775 59.5144 84.658 57.189 86.3113C58.6918 87.6802 62.4508 89.3441 59.7507 91.81C57.1304 94.2039 55.6831 89.9096 54.6833 88.0282C49.9748 91.9796 50.6554 97.428 50.1115 103.011C49.8274 105.926 49.08 108.796 48.5979 111.667C48.2507 113.734 48.4942 115.871 48.395 117.981C48.142 123.341 47.6147 128.473 47.6405 133.759C47.6675 139.408 48.0441 144.865 48.4865 150.474C49.2311 159.917 50.9373 169.363 52.4003 178.731C53.2234 183.997 54.35 189.113 55.4437 194.294C56.6848 200.174 58.9808 205.743 60.2684 211.608C61.5804 209.903 62.5672 209.895 64.6891 210.121C66.3213 210.295 67.4177 209.898 67.3221 212.213C67.2603 213.715 65.9641 214.861 64.5299 215.124C62.6596 215.465 62.0242 214.511 61.0604 213.064C60.8349 215.805 62.6389 218.672 63.3524 221.349C64.0275 223.886 64.4749 226.373 65.6096 228.802C66.7168 231.171 67.6648 233.508 68.7851 235.854C69.3011 236.934 69.7836 238.03 70.3054 239.107C70.5693 239.652 70.88 240.404 71.2737 240.863C72.1974 241.94 72.0504 241.419 73.1314 242.032C75.4865 243.369 74.6021 243.036 74.6571 245.797C74.7108 248.52 76.0773 250.521 78.2687 252.052C82.9181 255.3 87.5039 256.204 92.7896 257.845C97.7145 259.374 102.902 260.687 108.117 260.657C114.504 260.62 120.806 259.764 127.193 259.678C134.24 259.582 141.354 259.621 148.386 259.87C151.282 259.973 153.973 260.104 156.769 260.86C160.017 261.739 163.159 261.39 166.506 261.257C173.647 260.973 181.034 260.409 188.082 260.358C193.157 260.321 198.511 259.959 203.605 260.272ZM388.78 263.101C390.049 263.786 392.895 263.505 394.171 263.315C396.42 262.98 396.661 262.069 398.087 260.02C400.542 256.492 402.536 253.113 403.98 249.026C406.745 241.204 407.874 233.201 409.087 225.019C410.436 215.927 407.973 206.503 407.092 197.472C406.889 195.401 406.612 193.348 406.292 191.292C406.1 190.062 406.05 185.88 405.259 184.816C403.738 182.772 396.666 184.421 393.886 184.606C386.125 185.124 378.313 185.245 370.556 185.335C366.42 185.383 362.261 185.56 358.166 185.593C356.285 185.608 354.447 185.513 352.559 185.325C351.928 185.263 351.311 185.115 350.675 185.079C348.498 184.956 348.662 184.633 348.099 186.604C347.113 190.056 347.871 194.448 347.613 198.031C347.266 202.819 347.079 207.675 347.165 212.473C347.244 216.907 347.096 221.331 347.258 225.774C347.326 227.615 347.522 229.115 347.997 230.872C348.534 232.859 349.125 237.502 350.463 238.877C350.615 239.033 351.752 238.668 352.053 239.058C352.518 239.659 352.433 240.93 352.753 241.318C353.786 242.574 355.921 242.674 357.47 243.238C361.721 244.787 365.62 246.469 369.627 248.558C373.206 250.424 378.978 252.013 381.13 255.694C382.117 257.382 382.25 259.608 383.157 261.349C384.19 263.333 382.123 262.296 384.654 263.101C385.795 263.463 387.611 263.101 388.78 263.101ZM11.4035 240.665C11.0815 245.246 8.55637 249.609 7.67738 254.113C7.26606 256.222 6.56837 258.295 6.0849 260.392C5.62127 262.404 3.94626 264.786 4.11583 266.776C10.2981 264.525 16.5603 263.959 23.0217 263.352C29.1459 262.776 35.6155 262.547 41.6882 262.544C47.8763 262.541 54.4929 261.923 60.8647 261.827C67.5282 261.727 74.2923 261.551 80.8593 260.845C77.4254 258.246 73.1287 255.805 70.5932 252.188C67.8367 248.257 66.4052 243.332 63.9797 239.184C59.1125 230.859 56.0182 220.53 53.4669 211.177C48.3161 192.297 42.5599 173.766 41.1727 154.183C38.5325 155.564 36.4367 160.925 35.1148 163.595C33.4277 167.003 32.5441 170.698 31.4473 174.321C29.1887 181.782 27.6255 189.519 24.86 196.91C19.5743 211.038 16.1769 226.261 11.4035 240.665ZM346.998 130.628C348.141 139.072 350.539 147.625 350.631 156.17C350.651 158.051 350.339 160.138 350.723 161.992C351.132 163.971 352.464 165.721 353.233 167.602C354.453 170.588 357.544 176.708 354.563 179.238C354.503 176.837 352.353 173.788 351.27 171.688C349.638 168.525 347.493 165.633 345.724 162.548C342.021 156.091 337.87 149.773 333.098 144.08C328.449 138.535 323.091 133.617 318.161 128.337C316.68 126.751 304.798 111.482 304.326 111.696C308.011 126.221 314.276 138.859 322.85 151.021C327.054 156.983 332.099 160.906 337.217 165.957C341.478 170.163 349.51 174.66 348.037 181.552C354.699 180.898 361.317 179.852 368.039 179.852C366.933 171.157 366.087 162.6 364.113 154.047C361.873 144.337 360.355 134.335 358.459 124.538C356.524 114.536 353.242 104.853 351.201 94.8704C349.246 85.3111 347.566 75.7688 346.133 66.103C344.948 71.4588 345.385 77.3414 344.965 82.806C344.536 88.3891 344.577 93.8693 344.72 99.4851C344.985 109.916 346.073 120.221 346.998 130.628ZM375.865 80.896C375.902 76.4311 376.748 72.0267 377.01 67.5724C377.09 66.2058 378.422 56.882 377.18 56.3953C376.158 58.6712 375.92 61.5838 374.992 63.9717C374.065 66.3574 372.826 68.6302 371.936 71.0325C370.01 76.2366 369.345 82.1253 369.137 87.6581C368.668 100.173 368.425 112.659 369.248 125.174C369.601 130.538 369.872 135.911 369.775 141.286C369.669 147.2 368.783 152.333 369.859 158.199C370.924 164.007 371.594 169.792 371.948 175.685C372.197 179.821 372.298 179.529 376.159 179.238C378.947 179.028 381.762 179.252 384.553 179.122C383.248 163.001 383.035 146.847 380.95 130.788C379.886 122.595 379.858 114.284 378.536 106.121C377.88 102.067 376.778 98.0936 376.145 94.0343C375.465 89.6759 375.8 85.288 375.865 80.896ZM93.49 70.7508C100.924 71.409 108.831 73.6804 116.451 72.1806C115.195 71.6607 111.908 70.9435 113.387 68.8915C114.891 66.805 117.426 69.4515 118.926 69.1782C119.851 69.0095 121.895 65.0581 122.465 64.24C123.759 62.3807 123.915 62.0566 126.242 61.5801C128.496 61.1192 129.007 61.6183 129.292 59.328C129.62 56.6944 128.728 53.7335 128.817 51.0404C129.007 45.2425 130.837 40.1582 132.54 34.7033C125.303 36.3124 118.226 38.2205 110.826 39.2576C107.663 39.701 102.742 40.7238 99.868 38.5261C99.1207 37.9546 99.2402 37.183 98.6287 36.5207C97.6031 35.4094 95.7008 34.2599 94.2463 33.9433C85.2953 31.9959 84.4222 45.0365 88.9078 49.9162C90.0313 51.139 91.5944 51.7428 92.7449 52.8633C94.2806 54.3576 94.4064 55.9316 94.6306 58.2126C95.0509 62.4899 94.4799 66.7838 92.6944 70.6965L93.49 70.7508ZM202.111 132.315C204.753 132.828 207.511 132.71 210.16 133.148C211.102 133.303 213.924 133.845 214.751 133.283C216.015 132.424 216.464 129.275 217.062 127.808C218.112 125.228 219.599 122.978 220.602 120.352C224.697 109.622 228.515 98.8504 233.468 88.4877C231.57 87.9835 230.112 87.9636 228.199 87.7032C226.206 87.4317 224.399 86.2274 222.498 85.7098C220.691 85.218 218.798 85.3433 217.007 84.7714C216.021 84.4566 215.174 83.7564 214.202 83.5117C212.652 83.1222 210.843 82.8945 209.921 83.9343C208.976 85.0009 208.645 87.9254 208.131 89.3031C206.761 92.9733 205.171 96.5154 204.024 100.27C202.989 103.656 202.005 107.007 201.094 110.424C200.132 114.031 198.235 117.005 197.08 120.451C196.201 123.074 195.371 125.756 195.24 128.553C195.112 131.282 194.724 131.455 197.394 131.891C198.742 132.111 200.843 132.93 202.111 132.315ZM375.967 260.041C376.655 260.369 377.304 260.326 377.913 259.91C371.946 257.335 366.142 253.763 359.918 251.996C354.078 250.339 348.403 248.359 342.778 246.318C338.207 244.659 334.097 243.368 329.965 240.45C327.456 238.678 325.228 236.686 323.504 234.097C321.585 231.214 321.158 227.112 319.08 224.516C316.275 227.665 312.979 230.049 309.66 232.551C308.512 233.417 305.758 235.304 305.365 236.643C304.869 238.333 306.197 239.95 306.854 241.661C308.536 246.041 309.357 250.419 310.27 254.974C310.635 256.799 311.425 259.543 312.892 260.307C314.228 261.003 318.097 260.497 319.759 260.368C328.432 259.697 336.951 259.009 345.676 259.621C355.549 260.312 366.119 260.79 375.967 260.041ZM393.289 178.869C394.866 178.875 396.405 178.673 397.976 178.673C397.069 174.347 399.188 168.75 399.94 164.432C400.78 159.602 401.42 154.608 401.981 149.739C403.163 139.484 403.698 129.354 403.713 119.024C403.728 109.028 405.508 99.8939 408.002 90.2848C410.68 79.965 415.066 70.6845 418.692 60.732C414.715 62.8808 412.513 67.9089 410.423 71.7529C407.781 76.6132 406.021 81.9948 404.942 87.4511C402.861 97.977 400.578 108.535 398.176 119.043C395.676 129.985 394.205 141.027 391.341 151.879C389.943 157.171 388.044 163.682 387.938 169.14C387.894 171.397 387.229 176.125 388.23 178.086C389.166 179.92 391.236 179.056 393.289 178.869ZM155.364 165.293C155.281 166.417 155.203 167.486 155.007 168.596C157.191 168.575 159.956 166.259 161.828 165.22C164.109 163.954 166.393 162.557 168.624 161.285C172.931 158.827 177.821 157.208 182.42 155.189C187.703 152.87 192.559 150.068 197.611 147.275C199.376 146.3 212.059 140.681 211.846 139.147C209.061 139.052 206.277 138.957 203.492 138.863C201.105 138.782 197.408 139.333 195.121 138.579C193.869 138.165 192.464 136.644 191.991 135.452C191.523 134.273 192.575 128.851 191.964 128.505C188.847 131.757 186.888 136.079 184.101 139.587C181.022 143.464 177.044 145.728 172.658 147.788C167.816 150.064 162.804 151.826 157.855 153.776C155.768 154.598 155.81 155.069 155.628 157.408C155.424 160.021 155.447 162.673 155.364 165.293ZM406.998 263.634C412.247 264.209 417.627 263.881 422.917 264.33C424.842 264.493 427.51 264.737 425.574 267.377C424.354 269.04 420.448 268.506 418.676 268.622C413.918 268.931 408.881 268.765 404.112 268.693C403.108 268.678 401.999 268.373 400.984 268.441C399.813 268.52 398.41 269.381 397.343 269.375C396.685 269.371 396.449 268.661 395.882 268.596C394.645 268.454 393.41 268.351 392.163 268.351C373.316 268.355 354.727 267.968 335.927 267.947C326.937 267.938 317.803 267.779 308.817 267.348C306.93 267.257 296.184 267.651 296.481 264.179C296.634 262.391 300.142 262.138 301.422 261.949C302.37 261.808 303.354 261.83 304.304 261.778C306.829 261.64 307.935 262.261 307.402 259.438C305.382 248.73 301.763 239.88 294.029 232.181C287.705 225.885 280.09 220.175 272.927 214.917C264.23 208.534 257.175 201.82 252.011 192.052C248.996 186.348 246.472 180.516 244.923 174.209C244.365 171.94 244.352 169.359 243.669 167.172C243.143 165.487 241.946 164.309 241.24 162.564C232.587 177.335 221.119 189.692 210.603 203.01C205.579 209.372 199.847 215.415 193.844 220.95C192.062 222.593 190.4 224.308 188.737 226.076C187.346 227.555 185.138 228.87 183.964 230.512C182.837 232.086 183.114 232.011 184.829 233.261C187.096 234.914 189.594 236.287 191.896 237.898C195.576 240.474 199.594 242.651 202.884 245.751C206.443 249.103 209.552 252.987 212.663 256.767C214.736 259.287 217.456 262.521 217.978 265.706C218.15 266.761 218.806 269.367 217.941 270.139C217.201 270.799 217.275 270.549 216.357 270.146C215.154 269.619 214.8 268.409 213.33 267.833C209.569 266.358 205.018 266.864 201.105 266.846C197.19 266.828 193.243 267.278 189.33 267.261C180.395 267.224 171.65 267.963 162.718 268.36C153.23 268.781 143.627 267.77 134.171 267.913C127.165 268.019 119.973 267.484 112.773 267.882C109.07 268.086 105.433 267.613 101.823 267.56C97.0953 267.49 92.2403 268.147 87.4723 268.241C79.6465 268.395 71.9164 268.394 64.0429 268.587C47.1069 269.001 30.2625 269.429 13.3167 269.703C11.0563 269.739 8.58163 269.661 6.34783 269.921C3.97692 270.198 5.20094 270.712 3.57418 271.585C-0.980014 274.026 0.0717181 264.976 0.18086 263.196C0.766258 253.657 3.13581 244.301 5.98342 235.245C8.68491 226.656 10.8781 217.666 13.166 208.892C15.6704 199.287 18.9334 190.077 21.8965 180.567C24.9326 170.822 27.4046 160.698 32.9189 152.06C34.175 150.093 35.4729 147.976 37.4934 146.736C39.7583 145.345 39.8558 146.157 39.8539 143.612C39.8526 141.216 39.9969 138.014 39.4435 135.727C38.9434 133.66 39.0205 134.885 37.8944 133.401C36.9779 132.194 36.0191 131.369 35.3615 129.903C31.3224 134.089 22.0764 131.88 18.1739 128.866C13.3974 125.177 9.75919 118.954 8.42603 113.026C7.35536 108.266 8.66912 99.1933 13.8241 96.9044C16.337 95.7886 25.5672 94.9451 25.9366 91.3085C26.1269 89.4312 22.8783 86.7915 22.1288 85.1774C20.7397 82.187 19.4056 78.2093 19.0196 74.9313C18.2655 68.5329 21.1077 61.3782 25.6353 57.0562C33.9409 49.1276 48.5546 45.0586 59.2384 50.089C56.9807 41.275 55.6177 33.6713 56.7547 24.5028C57.7343 16.6042 62.2943 12.1849 68.5691 8.2506C79.2767 1.53588 93.8377 -1.11437 106.081 0.838059C108.863 1.28192 111.533 2.2337 114.109 2.99098C117.852 4.09118 122.332 3.72476 125.865 5.51232C128.428 6.80794 130.373 9.38905 132.623 11.1124C135.25 13.1243 137.433 16.1271 139.258 18.9041C143.162 24.8425 141.636 35.8639 138.369 41.8249C137.669 43.1034 136.804 44.1797 135.644 45.0522C134.438 45.9602 132.598 46.2427 131.976 47.4204C130.383 50.437 131.92 56.9677 132.132 60.2282C132.38 64.0141 130.507 66.858 126.306 67.1599C123.876 67.335 123.799 65.8942 122.635 68.8588C121.881 70.7803 121.196 72.8738 120.108 74.6354C117.864 78.266 113.754 77.9116 110.011 77.8134C105.678 77.6991 101.41 76.9994 97.0741 76.5579C98.2192 80.3074 101.354 83.2176 103.311 86.5579C105.957 91.0757 107.55 94.8206 107.981 100.084C108.311 104.128 107.598 107.322 104.89 110.332C103.77 111.578 102.776 111.639 103.054 113.076C103.224 113.953 104.707 115.399 105.232 116.099C106.621 117.95 108.233 119.649 109.455 121.625C114.158 129.231 115.547 140.826 115.559 149.68C115.56 150.086 115.772 150.95 115.596 151.37C115.466 151.68 114.48 152.662 114.465 152.746C114.272 153.885 115.358 155.836 117.062 156.029C118.852 156.232 122.131 154.705 123.796 154.204C126.46 153.401 129.176 152.808 131.835 151.984C136.129 150.652 140.403 149.59 144.768 148.546C146.741 148.075 148.724 147.683 150.703 147.242C152.957 146.741 154.005 145.771 155.168 148.115C156.166 150.126 155.546 150.491 157.964 149.478C160.364 148.47 162.71 147.222 165.054 146.086C169.188 144.082 174.111 142.295 177.677 139.337C183.625 134.401 185.828 126.54 191.521 121.303C193.106 119.845 194.052 119.819 195.054 117.799C196.127 115.636 196.68 112.864 197.244 110.538C198.232 106.465 198.935 102.378 199.831 98.3093C200.947 93.2402 203.36 88.6495 205.12 83.8145C205.806 81.9308 206.161 79.5363 207.268 77.8434C207.561 77.3944 208.121 77.1414 208.35 76.7699C209.137 75.4946 209.129 75.1443 209.332 73.6099C210.286 66.4404 214.474 70.212 219.05 71.8561C220.978 72.5489 230.133 77.0414 226.637 80.029C230.804 81.2647 237.478 80.5932 237.422 86.6966C237.394 89.8239 235.563 93.1692 234.581 96.0965C233.708 98.6955 232.865 101.305 231.979 103.9C230.037 109.584 227.682 115.098 225.787 120.8C224.923 123.399 224.211 126.059 223.009 128.511C221.948 130.675 219.381 133.059 218.958 135.425C230.063 130.583 240.336 123.583 252.766 124.029C258.209 124.224 263.148 126.562 266.154 131.453C269.922 137.583 272.402 144.447 276.085 150.633C289.485 173.139 305.467 193.586 320.176 215.16C321.306 216.818 322.759 218.385 323.151 220.434C323.407 221.771 322.911 223.108 323.217 224.392C323.854 227.061 327.069 230.393 329.249 231.926C333.428 234.866 340.222 239.012 345.436 238.645C342.164 230.607 342.207 221.799 342.359 213.225C342.504 205.08 343.365 197.001 344.388 188.94C344.619 187.116 344.821 185.426 345.334 183.658C345.922 181.63 346.73 181.822 344.967 179.999C342.254 177.192 339.027 174.883 336.292 172.041C330.376 165.895 324.313 161.078 319.656 153.739C315.228 146.758 310.557 139.576 307.279 131.931C303.905 124.062 302.556 115.659 300.881 107.325C300.201 103.943 297.722 100.168 298.22 96.6362C298.85 92.1732 300.875 95.4231 301.699 97.8249C304.215 105.157 310.106 111.719 314.984 117.615C320.256 123.985 326.703 129.314 332.205 135.499C338.197 142.235 342.301 149.976 347.629 157.166C347.629 148.243 344.648 139.156 343.428 130.329C342.355 122.559 342.018 114.765 341.34 106.962C339.8 89.2362 341.131 70.9882 343.292 53.3892C344.32 45.031 343.737 36.8696 343.768 28.4828C343.778 25.8137 342.697 19.6619 344.075 17.2932C346.714 12.7565 348.253 22.6767 348.386 24.1558C349.184 32.9666 347.753 41.6792 348.484 50.4522C349.248 59.6138 350.906 68.5182 352.317 77.5737C353.845 87.3787 356.333 96.9625 358.716 106.579C361.217 116.677 363.32 126.985 366.101 137.001C366.851 133.853 365.799 129.985 365.591 126.778C365.294 122.189 364.715 117.599 364.665 112.999C364.585 105.666 364.529 98.1973 364.935 90.8987C365.335 83.7048 365.214 76.1666 367.373 69.2358C368.397 65.9463 369.9 62.737 371.37 59.6382C373.184 55.8173 373.826 52.1124 374.83 48.0486C375.69 44.5682 376.95 41.1796 377.523 37.6296C377.879 35.4219 378.874 28.9046 381.347 33.8423C382.783 36.7083 382.162 40.957 382.202 44.0359C382.254 47.9831 381.663 51.8212 381.572 55.7518C381.396 63.4638 381.269 71.1666 380.706 78.8657C380.116 86.9432 380.631 94.1823 382.135 102.141C383.78 110.853 384.262 119.585 385.115 128.403C385.555 132.957 386.296 137.485 386.654 142.044C386.844 144.459 385.872 151.383 387.565 153.103C387.729 148.921 388.902 144.735 389.79 140.659C390.844 135.831 391.269 130.756 392.045 125.859C393.302 117.924 395.741 110.347 397.355 102.502C400.681 86.3302 403.444 65.5453 417.384 54.96C419.208 53.5749 421.212 52.5526 423.184 51.4128C424.3 50.7675 425.958 49.0981 427.236 48.8068C428.63 48.4888 429.211 48.7358 429.776 50.3886C430.564 52.6927 429.123 53.769 427.778 55.4425C423.122 61.2335 421.133 68.6569 418.258 75.4485C411.676 91.0001 408.763 107.403 408.73 124.214C408.712 133.014 408.118 141.501 407.2 150.248C406.212 159.661 404.911 169.617 402.112 178.673C404.919 179.316 407.964 178.357 408.726 181.691C408.913 182.51 408.575 183.479 408.782 184.545C408.983 185.581 409.467 186.611 409.753 187.631C410.345 189.738 410.658 191.818 410.945 193.982C412.058 202.347 413.969 210.303 414.172 218.784C414.359 226.624 412.857 234.567 411.474 242.256C410.08 250 406.081 256.602 402.934 263.605C404.289 263.605 405.643 263.619 406.998 263.634Z" fill="black"/>
<path fill-rule="evenodd" clip-rule="evenodd" d="M228.852 245.832C227.36 246.263 220.153 247.077 220.155 249.388C220.155 250.774 227.352 250.747 228.626 250.897C228.702 249.209 228.777 247.52 228.852 245.832ZM244.76 261.779C248.913 262.586 254.55 261.451 257.205 257.709C258.445 255.961 259.033 253.302 259.437 251.215C259.824 249.227 261.014 244.265 260.204 242.401C259.209 240.113 249.667 242.505 246.889 242.767C242.041 243.225 237.028 243.279 232.177 242.955C232.177 248.074 231.921 253.063 234.867 257.469C236.993 260.648 240.984 261.398 244.76 261.779ZM243.925 268.101C239.413 266.414 234.675 267.511 231.737 262.56C230.992 261.304 230.364 259.953 229.913 258.558C229.692 257.947 229.521 257.321 229.399 256.68C229.629 255.3 229.134 254.911 227.915 255.513C225.524 255.037 222.901 256.715 220.382 256.221C214.272 255.021 215.382 246.076 219.482 242.98C220.292 242.368 221.101 242.198 222.028 241.895C224.072 241.23 225.179 241.973 227.048 241.784C228.559 241.632 228.974 240.013 230.598 239.299C231.661 238.833 233.137 238.869 234.254 238.822C240.103 238.576 245.97 238.579 251.856 238.189C254.601 238.008 257.565 238.452 260.254 237.973C261.513 237.748 261.333 236.891 262.525 237.643C263.759 238.421 263.226 241.298 263.164 242.445C262.804 249.079 262.417 256.193 258.94 261.993C255.759 267.299 249.498 267.842 243.925 268.101Z" fill="black"/>
<path fill-rule="evenodd" clip-rule="evenodd" d="M5.62256 269.929C7.07433 269.913 8.52564 269.898 9.97245 269.882C8.51888 269.898 7.07072 269.914 5.62256 269.929Z" fill="black"/>
<path fill-rule="evenodd" clip-rule="evenodd" d="M408.74 128.486C408.737 127.061 408.733 125.636 408.73 124.213C408.733 125.639 408.736 127.063 408.74 128.486Z" fill="black"/>
<path fill-rule="evenodd" clip-rule="evenodd" d="M39.4481 134.338C39.4436 135.727 39.439 137.115 39.4344 138.5C39.4385 137.111 39.4431 135.724 39.4481 134.338Z" fill="black"/>
<path fill-rule="evenodd" clip-rule="evenodd" d="M160.122 268.355C161.277 268.357 162.432 268.359 163.581 268.362C162.425 268.361 161.274 268.358 160.122 268.355Z" fill="black"/>
<path fill-rule="evenodd" clip-rule="evenodd" d="M89.9926 268.072C91.1476 268.076 92.3021 268.08 93.4517 268.084C92.2949 268.081 91.144 268.076 89.9926 268.072Z" fill="black"/>
<path fill-rule="evenodd" clip-rule="evenodd" d="M342.512 210.416C342.461 211.353 342.41 212.289 342.359 213.225C342.41 212.287 342.461 211.351 342.512 210.416Z" fill="black"/>
<path fill-rule="evenodd" clip-rule="evenodd" d="M406.998 263.633C406.106 263.624 405.213 263.614 404.321 263.605C405.217 263.223 406.11 263.24 406.998 263.633Z" fill="black"/>
<path fill-rule="evenodd" clip-rule="evenodd" d="M327.755 267.782C328.395 267.772 329.036 267.762 329.67 267.751C329.028 267.761 328.391 267.772 327.755 267.782Z" fill="black"/>
<path fill-rule="evenodd" clip-rule="evenodd" d="M408.391 140.049C408.407 139.341 408.423 138.633 408.439 137.927C408.423 138.636 408.407 139.342 408.391 140.049Z" fill="black"/>
<path fill-rule="evenodd" clip-rule="evenodd" d="M348.484 50.4523C348.432 49.7217 348.379 48.9916 348.326 48.2629C348.379 48.9939 348.432 49.7231 348.484 50.4523Z" fill="black"/>
<path fill-rule="evenodd" clip-rule="evenodd" d="M408.707 131.276C408.716 130.543 408.725 129.811 408.733 129.082C408.725 129.815 408.716 130.545 408.707 131.276Z" fill="black"/>
<path fill-rule="evenodd" clip-rule="evenodd" d="M207.253 266.875C207.822 266.883 208.392 266.892 208.957 266.899C208.386 266.89 207.819 266.882 207.253 266.875Z" fill="black"/>
<path fill-rule="evenodd" clip-rule="evenodd" d="M353.966 268.069C354.522 268.08 355.079 268.091 355.631 268.103C355.072 268.092 354.519 268.08 353.966 268.069Z" fill="black"/>
<path fill-rule="evenodd" clip-rule="evenodd" d="M414.108 216.58C414.068 215.937 414.028 215.295 413.989 214.654C414.029 215.297 414.068 215.938 414.108 216.58Z" fill="black"/>
<path fill-rule="evenodd" clip-rule="evenodd" d="M404.113 268.693C404.566 268.69 405.019 268.687 405.467 268.686C405.012 268.69 404.562 268.691 404.113 268.693Z" fill="black"/>
<path fill-rule="evenodd" clip-rule="evenodd" d="M342.363 268.098C342.811 268.087 343.26 268.075 343.704 268.064C343.254 268.076 342.808 268.087 342.363 268.098Z" fill="black"/>
<path fill-rule="evenodd" clip-rule="evenodd" d="M241.479 267.747C241.974 267.745 242.467 267.742 242.957 267.738C242.461 267.741 241.97 267.744 241.479 267.747Z" fill="black"/>
<path fill-rule="evenodd" clip-rule="evenodd" d="M127.553 267.746C128.022 267.749 128.492 267.753 128.957 267.757C128.485 267.754 128.019 267.75 127.553 267.746Z" fill="black"/>
<path fill-rule="evenodd" clip-rule="evenodd" d="M99.8383 267.823C100.317 267.796 100.795 267.768 101.27 267.741C100.789 267.769 100.314 267.796 99.8383 267.823Z" fill="black"/>
<path fill-rule="evenodd" clip-rule="evenodd" d="M232.525 81.3294C231.812 81.2667 231.099 81.204 230.387 81.1409C231.1 81.192 231.855 80.7606 232.525 81.3294Z" fill="black"/>
<path fill-rule="evenodd" clip-rule="evenodd" d="M414.175 263.91C413.473 263.838 412.77 263.765 412.068 263.692C412.771 263.765 413.473 263.838 414.175 263.91Z" fill="black"/>
<path fill-rule="evenodd" clip-rule="evenodd" d="M365.165 85.7507C365.118 86.3799 365.07 87.0095 365.023 87.6368C365.07 87.0067 365.118 86.3785 365.165 85.7507Z" fill="black"/>
<path fill-rule="evenodd" clip-rule="evenodd" d="M408.884 111.982C408.932 111.386 408.98 110.789 409.027 110.195C408.98 110.793 408.931 111.387 408.884 111.982Z" fill="black"/>
<path fill-rule="evenodd" clip-rule="evenodd" d="M364.885 95.5103C364.834 96.1385 364.783 96.7662 364.733 97.3922C364.784 96.7635 364.834 96.1366 364.885 95.5103Z" fill="black"/>
<path fill-rule="evenodd" clip-rule="evenodd" d="M408.586 136.059C408.582 135.452 408.577 134.845 408.573 134.24C408.957 134.845 408.941 135.451 408.586 136.059Z" fill="black"/>
<path fill-rule="evenodd" clip-rule="evenodd" d="M342.522 223.233C342.516 223.841 342.511 224.45 342.505 225.056C342.112 224.442 342.19 223.836 342.522 223.233Z" fill="black"/>
<path fill-rule="evenodd" clip-rule="evenodd" d="M387.307 152.841C387.239 152.225 387.17 151.609 387.101 150.995C387.17 151.612 387.239 152.226 387.307 152.841Z" fill="black"/>
<path fill-rule="evenodd" clip-rule="evenodd" d="M16.4659 96.3196C16 96.9487 15.3655 96.5178 14.8116 96.5943C15.3637 96.5026 15.9148 96.4113 16.4659 96.3196Z" fill="black"/>
<path fill-rule="evenodd" clip-rule="evenodd" d="M246.833 238.625C246.244 238.626 245.656 238.627 245.067 238.628C245.656 238.627 246.244 238.626 246.833 238.625Z" fill="black"/>
<path fill-rule="evenodd" clip-rule="evenodd" d="M340.865 98.9043C340.92 99.4159 340.975 99.9275 341.03 100.437C340.975 99.9248 340.92 99.4145 340.865 98.9043Z" fill="black"/>
<path fill-rule="evenodd" clip-rule="evenodd" d="M49.9941 48.093C49.4024 48.1049 48.8107 48.1169 48.219 48.1289C48.8044 47.7768 49.3943 47.6749 49.9941 48.093Z" fill="black"/>
<path fill-rule="evenodd" clip-rule="evenodd" d="M364.87 104.36C364.832 104.897 364.793 105.433 364.755 105.967C364.794 105.43 364.832 104.895 364.87 104.36Z" fill="black"/>
<path fill-rule="evenodd" clip-rule="evenodd" d="M348.643 38.5041C348.689 38.0151 348.735 37.5261 348.781 37.0398C348.735 37.5297 348.689 38.0169 348.643 38.5041Z" fill="black"/>
<path fill-rule="evenodd" clip-rule="evenodd" d="M343.994 36.9719C343.947 37.5024 343.901 38.0334 343.855 38.5621C343.901 38.0306 343.947 37.5011 343.994 36.9719Z" fill="black"/>
<path fill-rule="evenodd" clip-rule="evenodd" d="M86.9722 1.53149C86.3701 1.60616 85.768 1.68083 85.1664 1.75504C85.7685 1.68037 86.3701 1.60616 86.9722 1.53149Z" fill="black"/>
<path fill-rule="evenodd" clip-rule="evenodd" d="M43.485 48.5151C42.8671 48.5797 42.2493 48.6442 41.6318 48.7087C42.2497 48.6442 42.8676 48.5797 43.485 48.5151Z" fill="black"/>
<path fill-rule="evenodd" clip-rule="evenodd" d="M382.065 50.0702C382.103 49.5765 382.141 49.0824 382.178 48.5916C382.141 49.0857 382.103 49.5779 382.065 50.0702Z" fill="black"/>
<path fill-rule="evenodd" clip-rule="evenodd" d="M23.2053 131.539C23.5612 131.545 23.9165 131.55 24.267 131.555C23.9098 131.55 23.5576 131.545 23.2053 131.539Z" fill="black"/>
<path fill-rule="evenodd" clip-rule="evenodd" d="M344.013 192.466C343.977 193.012 343.941 193.558 343.905 194.104C343.941 193.557 343.977 193.011 344.013 192.466Z" fill="black"/>
<path fill-rule="evenodd" clip-rule="evenodd" d="M380.311 86.086C380.297 85.5591 380.283 85.0328 380.268 84.5073C380.283 85.0346 380.297 85.5601 380.311 86.086Z" fill="black"/>
<path fill-rule="evenodd" clip-rule="evenodd" d="M102.128 0.28497C101.58 0.28497 101.031 0.285431 100.483 0.285431C101.032 -0.0998925 101.58 -0.0902131 102.128 0.28497Z" fill="black"/>
<path fill-rule="evenodd" clip-rule="evenodd" d="M248.663 124.281C248.062 124.297 247.461 124.313 246.861 124.328C247.451 123.902 248.053 123.891 248.663 124.281Z" fill="black"/>
<path fill-rule="evenodd" clip-rule="evenodd" d="M301.2 266.853C301.556 266.86 301.913 266.868 302.265 266.877C301.907 266.87 301.553 266.861 301.2 266.853Z" fill="black"/>
<path fill-rule="evenodd" clip-rule="evenodd" d="M314.62 267.493C314.976 267.48 315.332 267.467 315.683 267.455C315.325 267.467 314.973 267.48 314.62 267.493Z" fill="black"/>
<path fill-rule="evenodd" clip-rule="evenodd" d="M104.592 267.746C104.963 267.756 105.334 267.765 105.7 267.775C105.328 267.765 104.96 267.756 104.592 267.746Z" fill="black"/>
<path fill-rule="evenodd" clip-rule="evenodd" d="M413.799 210.484C413.747 209.964 413.694 209.442 413.641 208.924C413.694 209.446 413.747 209.965 413.799 210.484Z" fill="black"/>
<path fill-rule="evenodd" clip-rule="evenodd" d="M365.325 122.681C365.367 123.178 365.409 123.674 365.45 124.167C365.408 123.671 365.367 123.176 365.325 122.681Z" fill="black"/>
<path fill-rule="evenodd" clip-rule="evenodd" d="M383.98 114.159C383.922 113.632 383.864 113.106 383.807 112.582C383.865 113.108 383.922 113.633 383.98 114.159Z" fill="black"/>
<path fill-rule="evenodd" clip-rule="evenodd" d="M107.603 268.06C107.977 268.054 108.352 268.048 108.723 268.043C108.346 268.049 107.975 268.055 107.603 268.06Z" fill="black"/>
<path fill-rule="evenodd" clip-rule="evenodd" d="M243.925 268.101C244.289 268.084 244.653 268.068 245.013 268.051C244.648 268.068 244.286 268.085 243.925 268.101Z" fill="black"/>
<path fill-rule="evenodd" clip-rule="evenodd" d="M380.935 75.7237C380.918 75.1904 380.902 74.6571 380.885 74.1248C380.902 74.6585 380.919 75.1909 380.935 75.7237Z" fill="black"/>
<path fill-rule="evenodd" clip-rule="evenodd" d="M72.108 268.408C72.4733 268.406 72.8382 268.402 73.1985 268.4C72.8314 268.403 72.4702 268.406 72.108 268.408Z" fill="black"/>
<path fill-rule="evenodd" clip-rule="evenodd" d="M380.782 268.403C381.157 268.407 381.533 268.411 381.904 268.415C381.526 268.411 381.154 268.407 380.782 268.403Z" fill="black"/>
<path fill-rule="evenodd" clip-rule="evenodd" d="M388.889 268.357C389.252 268.383 389.614 268.41 389.972 268.436C389.608 268.409 389.248 268.383 388.889 268.357Z" fill="black"/>
<path fill-rule="evenodd" clip-rule="evenodd" d="M392.163 268.351C392.532 268.362 392.901 268.373 393.266 268.381C392.896 268.37 392.529 268.36 392.163 268.351Z" fill="black"/>
<path fill-rule="evenodd" clip-rule="evenodd" d="M408.975 116.273C408.95 115.748 408.926 115.223 408.902 114.7C408.927 115.226 408.95 115.749 408.975 116.273Z" fill="black"/>
<path fill-rule="evenodd" clip-rule="evenodd" d="M161.225 261.475C162.348 261.416 163.471 261.356 164.594 261.296C163.471 261.356 162.348 261.415 161.225 261.475Z" fill="black"/>
<path fill-rule="evenodd" clip-rule="evenodd" d="M93.49 70.751C94.4646 70.8376 95.4392 70.9243 96.4129 71.01C95.4383 70.9238 94.4641 70.8372 93.49 70.751Z" fill="black"/>
<path fill-rule="evenodd" clip-rule="evenodd" d="M368.666 114.055C368.697 115.005 368.728 115.955 368.758 116.903C368.727 115.952 368.697 115.004 368.666 114.055Z" fill="black"/>
<path fill-rule="evenodd" clip-rule="evenodd" d="M388.78 263.101C389.797 263.164 390.814 263.226 391.832 263.29C390.808 263.337 389.769 263.635 388.78 263.101Z" fill="black"/>
<path fill-rule="evenodd" clip-rule="evenodd" d="M382.759 150.681C382.767 149.775 382.774 148.868 382.782 147.964C382.774 148.871 382.767 149.776 382.759 150.681Z" fill="black"/>
<path fill-rule="evenodd" clip-rule="evenodd" d="M380.155 179.166C381.047 179.178 381.941 179.19 382.833 179.202C381.94 179.19 381.047 179.178 380.155 179.166Z" fill="black"/>
<path fill-rule="evenodd" clip-rule="evenodd" d="M155.429 163.227C155.407 163.918 155.384 164.609 155.363 165.297C155.386 164.605 155.408 163.916 155.429 163.227Z" fill="black"/>
<path fill-rule="evenodd" clip-rule="evenodd" d="M395.012 133.971C394.975 134.658 394.939 135.346 394.903 136.03C394.94 135.341 394.976 134.656 395.012 133.971Z" fill="black"/>
<path fill-rule="evenodd" clip-rule="evenodd" d="M375.967 260.041C376.616 259.996 377.266 259.952 377.914 259.909C377.425 260.308 376.934 260.341 375.967 260.041Z" fill="black"/>
<path fill-rule="evenodd" clip-rule="evenodd" d="M371.621 170.164C371.665 170.905 371.71 171.646 371.754 172.385C371.709 171.643 371.665 170.904 371.621 170.164Z" fill="black"/>
<path fill-rule="evenodd" clip-rule="evenodd" d="M128.796 53.1822C128.802 52.4664 128.809 51.7506 128.817 51.0376C128.81 51.7543 128.803 52.4683 128.796 53.1822Z" fill="black"/>
<path fill-rule="evenodd" clip-rule="evenodd" d="M372.407 179.315L374.827 179.261C374.028 179.656 373.222 179.67 372.407 179.315Z" fill="black"/>
<path fill-rule="evenodd" clip-rule="evenodd" d="M394.738 184.598C394.167 184.603 393.596 184.607 393.03 184.613C393.602 184.609 394.17 184.603 394.738 184.598Z" fill="black"/>
<path fill-rule="evenodd" clip-rule="evenodd" d="M185.712 260.326C186.502 260.336 187.292 260.347 188.083 260.357C187.287 260.765 186.496 260.823 185.712 260.326Z" fill="black"/>
<path fill-rule="evenodd" clip-rule="evenodd" d="M36.8688 262.705C37.6707 262.632 38.473 262.559 39.2749 262.486C38.473 262.559 37.6707 262.632 36.8688 262.705Z" fill="black"/>
<path fill-rule="evenodd" clip-rule="evenodd" d="M368.944 120.158C368.984 120.902 369.023 121.646 369.062 122.388C369.023 121.643 368.984 120.901 368.944 120.158Z" fill="black"/>
<path fill-rule="evenodd" clip-rule="evenodd" d="M112.984 72.4973C113.66 72.1567 114.341 72.0995 115.029 72.4604C114.347 72.4728 113.665 72.4853 112.984 72.4973Z" fill="black"/>
<path fill-rule="evenodd" clip-rule="evenodd" d="M346.83 128.749C346.886 129.376 346.942 130.004 346.998 130.629C346.942 130.001 346.886 129.374 346.83 128.749Z" fill="black"/>
<path fill-rule="evenodd" clip-rule="evenodd" d="M403.939 114.107C403.592 113.493 403.604 112.882 403.956 112.277C403.95 112.888 403.945 113.497 403.939 114.107Z" fill="black"/>
<path fill-rule="evenodd" clip-rule="evenodd" d="M369.055 92.7939C369.055 93.4148 369.056 94.0361 369.056 94.6551C369.055 94.0329 369.055 93.4134 369.055 92.7939Z" fill="black"/>
<path fill-rule="evenodd" clip-rule="evenodd" d="M393.289 178.869C393.985 178.651 394.681 178.343 395.374 178.876C394.679 178.874 393.984 178.871 393.289 178.869Z" fill="black"/>
<path fill-rule="evenodd" clip-rule="evenodd" d="M168.419 261.195C169.119 261.128 169.819 261.061 170.519 260.995C169.819 261.061 169.119 261.128 168.419 261.195Z" fill="black"/>
<path fill-rule="evenodd" clip-rule="evenodd" d="M72.4257 261.196C73.067 260.908 73.7069 260.757 74.3388 261.218C73.7006 261.21 73.0634 261.203 72.4257 261.196Z" fill="black"/>
<path fill-rule="evenodd" clip-rule="evenodd" d="M203.605 260.271C204.291 259.965 204.975 259.797 205.652 260.293C204.969 260.286 204.287 260.279 203.605 260.271Z" fill="black"/>
<path fill-rule="evenodd" clip-rule="evenodd" d="M50.9468 169.598C50.9982 170.231 51.0501 170.864 51.101 171.495C51.0492 170.862 50.9977 170.23 50.9468 169.598Z" fill="black"/>
<path fill-rule="evenodd" clip-rule="evenodd" d="M210.161 133.148C210.835 132.897 211.508 132.766 212.17 133.185C211.5 133.172 210.83 133.16 210.161 133.148Z" fill="black"/>
<path fill-rule="evenodd" clip-rule="evenodd" d="M368.934 151.985C368.972 152.603 369.009 153.222 369.046 153.839C369.008 153.22 368.971 152.602 368.934 151.985Z" fill="black"/>
<path fill-rule="evenodd" clip-rule="evenodd" d="M50.5106 96.1721C50.4547 96.6704 50.3987 97.1691 50.3433 97.6645C50.3992 97.1654 50.4547 96.669 50.5106 96.1721Z" fill="black"/>
<path fill-rule="evenodd" clip-rule="evenodd" d="M11.4044 240.664C11.3694 241.149 11.3348 241.634 11.3002 242.116C11.3361 241.631 11.3703 241.147 11.4044 240.664Z" fill="black"/>
<path fill-rule="evenodd" clip-rule="evenodd" d="M383.058 155.258C383.02 154.757 382.983 154.256 382.945 153.756C382.983 154.259 383.02 154.759 383.058 155.258Z" fill="black"/>
<path fill-rule="evenodd" clip-rule="evenodd" d="M333.922 259.335C334.523 259.339 335.124 259.344 335.725 259.348C335.124 259.344 334.523 259.339 333.922 259.335Z" fill="black"/>
<path fill-rule="evenodd" clip-rule="evenodd" d="M155.201 167.494C155.314 167.859 155.426 168.225 155.538 168.59C154.788 168.775 154.676 168.41 155.201 167.494Z" fill="black"/>
<path fill-rule="evenodd" clip-rule="evenodd" d="M200.28 132.322C200.89 132.32 201.501 132.317 202.111 132.314C201.502 132.61 200.892 132.814 200.28 132.322Z" fill="black"/>
<path fill-rule="evenodd" clip-rule="evenodd" d="M51.2891 172.594C51.31 173.147 51.3309 173.701 51.351 174.252C51.3296 173.699 51.3091 173.146 51.2891 172.594Z" fill="black"/>
<path fill-rule="evenodd" clip-rule="evenodd" d="M57.7493 261.801C58.3387 261.801 58.9277 261.8 59.5172 261.8C58.9273 261.8 58.3387 261.801 57.7493 261.801Z" fill="black"/>
<path fill-rule="evenodd" clip-rule="evenodd" d="M348.313 178.426C348.335 178.935 348.357 179.445 348.379 179.951C348.358 179.44 348.335 178.933 348.313 178.426Z" fill="black"/>
<path fill-rule="evenodd" clip-rule="evenodd" d="M45.2357 262.422C45.8153 262.029 46.3961 262.063 46.9779 262.415C46.397 262.418 45.8162 262.42 45.2357 262.422Z" fill="black"/>
<path fill-rule="evenodd" clip-rule="evenodd" d="M60.4966 89.0569C60.528 89.5768 60.5599 90.0972 60.5926 90.6138C60.5612 90.093 60.5289 89.575 60.4966 89.0569Z" fill="black"/>
<path fill-rule="evenodd" clip-rule="evenodd" d="M42.2203 262.476C42.8229 262.478 43.4254 262.481 44.0275 262.483C43.4231 262.904 42.8211 262.924 42.2203 262.476Z" fill="black"/>
<path fill-rule="evenodd" clip-rule="evenodd" d="M375.865 80.8955C375.87 80.3673 375.874 79.8396 375.879 79.3127C375.874 79.8414 375.869 80.3682 375.865 80.8955Z" fill="black"/>
<path fill-rule="evenodd" clip-rule="evenodd" d="M99.2443 71.6589C99.8206 71.7359 100.397 71.8129 100.973 71.8894C100.397 71.8124 99.8202 71.7359 99.2443 71.6589Z" fill="black"/>
<path fill-rule="evenodd" clip-rule="evenodd" d="M48.3824 117.243C48.3902 117.736 48.3979 118.229 48.407 118.72C48.3993 118.226 48.3911 117.734 48.3824 117.243Z" fill="black"/>
<path fill-rule="evenodd" clip-rule="evenodd" d="M379.746 117.172C379.714 116.669 379.682 116.167 379.65 115.667C379.682 116.17 379.714 116.671 379.746 117.172Z" fill="black"/>
<path fill-rule="evenodd" clip-rule="evenodd" d="M245.315 261.886C246.026 261.952 246.737 262.018 247.448 262.084C246.737 262.018 246.026 261.952 245.315 261.886Z" fill="black"/>
<path fill-rule="evenodd" clip-rule="evenodd" d="M242.938 243.071C242.553 243.077 242.17 243.083 241.789 243.091C242.174 243.086 242.556 243.078 242.938 243.071Z" fill="black"/>
<path fill-rule="evenodd" clip-rule="evenodd" d="M242.971 261.599C243.567 261.659 244.164 261.719 244.76 261.779C244.164 261.719 243.567 261.659 242.971 261.599Z" fill="black"/>
<path fill-rule="evenodd" clip-rule="evenodd" d="M135.623 220.546C136.399 225.028 129.584 229.411 129.044 223.04C128.846 220.71 130.371 219.072 132.078 217.647C134.5 215.626 135.854 217.562 135.623 220.546Z" fill="black"/>
<path fill-rule="evenodd" clip-rule="evenodd" d="M60.4989 165.865C62.1045 166.536 74.3712 170.621 67.9995 172.676C66.3128 173.22 63.7633 173.301 62.3011 172.343C60.5422 171.189 58.768 167.787 60.4989 165.865Z" fill="black"/>
<path fill-rule="evenodd" clip-rule="evenodd" d="M63.5179 105.17C67.6816 104.675 71.5178 111.664 66.3845 111.438C62.6479 111.272 57.6229 105.17 63.5179 105.17Z" fill="black"/>
<path fill-rule="evenodd" clip-rule="evenodd" d="M78.4122 122.305C81.889 125.406 75.4446 132.344 72.8861 129.658C71.5796 128.287 72.7846 125.332 73.863 124.184C74.9697 123.006 76.9388 122.785 78.4122 122.305Z" fill="black"/>
<path fill-rule="evenodd" clip-rule="evenodd" d="M88.7626 202.674C86.7101 203.008 77.6838 206.022 79.5662 200.547C80.2842 198.459 82.2867 199.078 84.1173 199.174C87.0677 199.328 88.7626 199.184 88.7626 202.674Z" fill="black"/>
<path fill-rule="evenodd" clip-rule="evenodd" d="M82.8172 216.777C85.8898 218.457 81.3983 227.859 78.8515 225.858C75.3179 223.083 80.1509 217.621 82.8172 216.777Z" fill="black"/>
<path fill-rule="evenodd" clip-rule="evenodd" d="M96.2181 209.219C97.7123 208.596 104.756 215.519 102.074 217.446C100.7 218.433 98.0965 216.74 97.268 215.72C95.7148 213.806 95.5741 211.445 96.2181 209.219Z" fill="black"/>
<path fill-rule="evenodd" clip-rule="evenodd" d="M55.5817 152.626C57.1088 152.882 59.7453 152.963 59.8441 155.156C59.9307 157.084 57.5661 157.708 55.9014 157.86C54.1741 158.016 51.8875 157.518 51.8546 155.299C51.8199 152.904 55.5276 153.049 55.5817 152.626Z" fill="black"/>
<path fill-rule="evenodd" clip-rule="evenodd" d="M93.2393 248.059C94.8656 249.068 102.451 252.701 99.1997 255.325C97.9829 256.308 94.2942 254.279 93.4639 253.248C92.4731 252.017 91.5048 249.134 93.2393 248.059Z" fill="black"/>
<path fill-rule="evenodd" clip-rule="evenodd" d="M114.327 221.698C114.092 217.688 120.712 216.092 119.339 221.783C118.953 223.388 118.578 225.824 116.637 225.917C114.342 226.027 114.259 223.253 114.327 221.698Z" fill="black"/>
<path fill-rule="evenodd" clip-rule="evenodd" d="M93.8779 151.966C93.9239 155.008 88.2205 157.69 88.1763 152.868C88.1371 148.56 94.0907 147.299 93.8779 151.966Z" fill="black"/>
<path fill-rule="evenodd" clip-rule="evenodd" d="M90.1116 136.123C91.5169 136.585 93.3845 136.824 93.508 138.648C93.6393 140.58 91.884 141.439 90.3046 141.331C89.0093 141.242 87.0926 140.262 86.8571 138.826C86.5121 136.718 88.5254 136.58 90.1116 136.123Z" fill="black"/>
<path fill-rule="evenodd" clip-rule="evenodd" d="M63.9797 191.816C63.9558 189.306 68.878 186.289 69.7845 189.202C70.0745 190.134 67.7546 194.313 66.9829 194.626C64.9412 195.454 64.6562 193.524 63.9797 191.816Z" fill="black"/>
<path fill-rule="evenodd" clip-rule="evenodd" d="M104.315 233.595C102.652 235.116 97.6622 239.39 98.0352 233.653C98.2733 229.987 104.754 230.179 104.315 233.595Z" fill="black"/>
<path fill-rule="evenodd" clip-rule="evenodd" d="M185.604 249.993C186.15 247.58 193.956 251.765 191.351 254.812C190.477 255.835 188.19 254.91 187.311 254.304C185.572 253.104 185.534 251.996 185.604 249.993Z" fill="black"/>
<path fill-rule="evenodd" clip-rule="evenodd" d="M142.112 198.353C142.417 197.277 142.755 195.376 143.759 194.689C145.575 193.448 147.157 195.321 147.158 197.295C147.158 200.978 143.056 202.139 142.112 198.353Z" fill="black"/>
<path fill-rule="evenodd" clip-rule="evenodd" d="M122.766 241.411C124.792 241.886 129.305 246.921 126.688 248.974C124.169 250.951 120.819 242.915 122.766 241.411Z" fill="black"/>
<path fill-rule="evenodd" clip-rule="evenodd" d="M124.695 203.299C127.301 203.511 130.883 207.824 126.832 208.509C123.664 209.046 119.979 204.355 124.695 203.299Z" fill="black"/>
<path fill-rule="evenodd" clip-rule="evenodd" d="M148.287 223.144C148.94 220.895 155.403 223.305 155.04 225.782C154.847 227.099 152.205 227.408 150.816 227.06C148.771 226.547 148.24 225.176 148.287 223.144Z" fill="black"/>
<path fill-rule="evenodd" clip-rule="evenodd" d="M72.1053 97.4968C72.1522 94.5885 77.6206 93.403 78.0211 96.3339C78.3832 98.9819 72.0367 101.799 72.1053 97.4968Z" fill="black"/>
<path fill-rule="evenodd" clip-rule="evenodd" d="M146.48 253.113C146.874 251.65 147.044 249.89 148.832 249.697C150.878 249.476 150.818 251.08 150.578 252.742C149.923 257.264 147.422 257.49 146.48 253.113Z" fill="black"/>
<path fill-rule="evenodd" clip-rule="evenodd" d="M60.1246 132.1C57.2738 132.757 52.0526 127.146 55.2438 125.942C57.4925 125.092 60.1246 130.407 60.1246 132.1Z" fill="black"/>
<path fill-rule="evenodd" clip-rule="evenodd" d="M96.4851 175.686C95.0343 176.384 94.7001 176.808 93.5856 175.662C92.6151 174.664 92.6579 171.884 93.4909 170.846C96.6813 166.871 96.6064 174.077 96.4851 175.686Z" fill="black"/>
<path fill-rule="evenodd" clip-rule="evenodd" d="M108.322 167.624C109.835 167.821 114.331 172.179 111.99 173.911C109.121 176.033 107.498 169.385 108.322 167.624Z" fill="black"/>
<path fill-rule="evenodd" clip-rule="evenodd" d="M141.059 168.771C139.959 173.1 137.214 170.187 137.37 166.912C137.619 161.666 140.464 166.235 141.059 168.771Z" fill="black"/>
<path fill-rule="evenodd" clip-rule="evenodd" d="M157.752 238.289C159.612 239.076 162.138 246.345 159.48 246.735C156.495 247.173 157.489 239.803 157.752 238.289Z" fill="black"/>
<path fill-rule="evenodd" clip-rule="evenodd" d="M134.514 234.205C136.643 233.471 137.423 238.061 136.186 238.914C133.463 240.79 134.037 235.288 134.514 234.205Z" fill="black"/>
<path fill-rule="evenodd" clip-rule="evenodd" d="M114.328 221.698C114.3 222.307 114.274 222.916 114.245 223.522C114.272 222.912 114.3 222.305 114.328 221.698Z" fill="black"/>
<path fill-rule="evenodd" clip-rule="evenodd" d="M185.605 249.993C185.583 250.618 185.56 251.242 185.537 251.864C185.559 251.238 185.582 250.615 185.605 249.993Z" fill="black"/>
<path fill-rule="evenodd" clip-rule="evenodd" d="M148.287 223.144C148.275 223.674 148.263 224.204 148.249 224.731C148.261 224.2 148.275 223.672 148.287 223.144Z" fill="black"/>
<path fill-rule="evenodd" clip-rule="evenodd" d="M383.798 214.023C388.212 213.878 393.136 212.18 397.474 212.72C398.668 212.869 401.417 213.176 399.504 214.986C398.589 215.852 394.208 215.404 392.883 215.692C384.778 217.445 375.577 218.576 367.267 218.43C363.376 218.362 359.457 218.044 355.569 217.833C351.683 217.623 351.301 216.01 355.673 215.496C360.214 214.963 364.874 215.161 369.438 215.155C374.235 215.149 379.009 214.35 383.798 214.023Z" fill="black"/>
<path fill-rule="evenodd" clip-rule="evenodd" d="M393.489 203.153C393.064 204.389 392.691 207.227 391.063 207.413C388.782 207.673 388.405 203.672 388.489 202.209C388.591 200.442 389.213 197.508 391.361 198.12C393.175 198.637 393.357 201.739 393.489 203.153Z" fill="black"/>
<path fill-rule="evenodd" clip-rule="evenodd" d="M379.684 202.248C380.017 200.924 380.181 197.939 382.013 197.838C384.06 197.725 384.645 200.835 384.632 202.325C384.618 203.739 384.106 206.411 382.476 206.738C380.266 207.181 380.068 203.761 379.684 202.248Z" fill="black"/>
<path fill-rule="evenodd" clip-rule="evenodd" d="M356.694 204.623C356.03 206.214 355.592 208.405 353.539 207.32C351.951 206.481 351.73 203.098 352.029 201.549C352.339 199.944 352.996 198.103 354.801 198.825C356.882 199.658 356.672 202.871 356.694 204.623Z" fill="black"/>
<path fill-rule="evenodd" clip-rule="evenodd" d="M374.104 203.153C372.147 209.216 368.578 205.114 369.933 200.588C371.35 195.857 373.924 200.452 374.104 203.153Z" fill="black"/>
<path fill-rule="evenodd" clip-rule="evenodd" d="M364.569 203.453C364.026 204.521 363.448 206.823 361.983 206.581C360.187 206.283 360.129 202.751 360.326 201.436C360.498 200.285 361.004 198.366 362.507 198.391C364.679 198.427 364.534 202.071 364.569 203.453Z" fill="black"/>
<path fill-rule="evenodd" clip-rule="evenodd" d="M403.604 204.617C402.147 207.957 400.144 205.08 400.785 202.708C401.736 199.189 403.522 202.307 403.604 204.617Z" fill="black"/>
<path fill-rule="evenodd" clip-rule="evenodd" d="M367.928 215.159C366.338 215.153 364.746 215.147 363.155 215.141C364.747 214.835 366.339 214.715 367.928 215.159Z" fill="black"/>
<path fill-rule="evenodd" clip-rule="evenodd" d="M399.544 212.706C398.164 212.715 396.784 212.724 395.405 212.733C396.782 212.311 398.162 212.302 399.544 212.706Z" fill="black"/>
<path fill-rule="evenodd" clip-rule="evenodd" d="M383.798 214.022C382.693 214.098 381.589 214.174 380.485 214.249C381.589 214.174 382.694 214.098 383.798 214.022Z" fill="black"/>
<path fill-rule="evenodd" clip-rule="evenodd" d="M356.694 204.623C356.684 203.812 356.673 203.002 356.664 202.194C357.072 202.999 357.043 203.809 356.694 204.623Z" fill="black"/>
<path fill-rule="evenodd" clip-rule="evenodd" d="M365.351 218.413C365.991 218.419 366.632 218.425 367.267 218.431C366.624 218.425 365.988 218.419 365.351 218.413Z" fill="black"/>
<path fill-rule="evenodd" clip-rule="evenodd" d="M354.596 217.833C355.245 217.833 355.894 217.833 356.538 217.833C355.887 217.833 355.242 217.833 354.596 217.833Z" fill="black"/>
<path fill-rule="evenodd" clip-rule="evenodd" d="M359.915 215.229C359.013 215.305 358.111 215.381 357.209 215.456C358.111 215.381 359.013 215.305 359.915 215.229Z" fill="black"/>
<path fill-rule="evenodd" clip-rule="evenodd" d="M372.109 215.149C371.219 215.151 370.328 215.153 369.438 215.155C370.328 214.772 371.218 214.76 372.109 215.149Z" fill="black"/>
<path fill-rule="evenodd" clip-rule="evenodd" d="M364.57 203.453C364.547 202.609 364.526 201.764 364.505 200.921C364.527 201.766 364.548 202.61 364.57 203.453Z" fill="black"/>
<path fill-rule="evenodd" clip-rule="evenodd" d="M352.03 201.549C352.025 202.372 352.02 203.196 352.013 204.017C352.018 203.192 352.024 202.371 352.03 201.549Z" fill="black"/>
<path fill-rule="evenodd" clip-rule="evenodd" d="M388.858 213.716C388.071 213.789 387.284 213.861 386.497 213.934C387.285 213.861 388.072 213.789 388.858 213.716Z" fill="black"/>
<path fill-rule="evenodd" clip-rule="evenodd" d="M403.605 204.617C403.579 203.898 403.553 203.178 403.528 202.459C403.554 203.179 403.579 203.898 403.605 204.617Z" fill="black"/>
<path fill-rule="evenodd" clip-rule="evenodd" d="M370.109 218.437C370.657 218.427 371.205 218.416 371.747 218.406C371.198 218.417 370.653 218.427 370.109 218.437Z" fill="black"/>
<path fill-rule="evenodd" clip-rule="evenodd" d="M393.489 203.153C393.44 202.636 393.392 202.118 393.344 201.603C393.393 202.121 393.441 202.637 393.489 203.153Z" fill="black"/>
<path fill-rule="evenodd" clip-rule="evenodd" d="M374.105 203.153C374.069 202.622 374.033 202.091 373.998 201.561C374.034 202.093 374.069 202.623 374.105 203.153Z" fill="black"/>
<path fill-rule="evenodd" clip-rule="evenodd" d="M91.4912 47.1204C89.3359 46.5424 88.9318 43.4469 89.2781 41.5457C89.6709 40.6294 90.0638 39.7135 90.4566 38.7972C90.3028 38.4585 90.1495 38.1197 89.9961 37.7809C90.1932 35.8939 89.6894 35.074 91.8114 35.8382C95.7531 37.2587 96.3832 46.9747 91.4912 47.1204Z" fill="black"/>
<path fill-rule="evenodd" clip-rule="evenodd" d="M123.396 41.1353C125.171 40.9924 128.397 43.1057 126.629 45.1503C125.534 46.4169 121.926 45.8177 120.454 46.0823C118.501 46.433 116.465 46.9128 117.521 43.9243C118.35 41.5773 121.313 41.074 123.396 41.1353Z" fill="black"/>
<path fill-rule="evenodd" clip-rule="evenodd" d="M121.527 55.1928C119.724 53.7146 120.529 46.9821 123.274 48.1933C126.097 49.4401 123.032 54.2212 121.527 55.1928Z" fill="black"/>
<path fill-rule="evenodd" clip-rule="evenodd" d="M89.2781 41.5457C89.2781 42.2541 89.2776 42.963 89.2763 43.6682C88.9001 42.9584 88.9119 42.2518 89.2781 41.5457Z" fill="black"/>
<path fill-rule="evenodd" clip-rule="evenodd" d="M91.4912 47.1205C91.8588 47.1099 92.2268 47.0988 92.5898 47.0891C92.2205 47.1011 91.8561 47.1108 91.4912 47.1205Z" fill="black"/>
<path fill-rule="evenodd" clip-rule="evenodd" d="M314.187 241.011C314.018 244.074 310.8 241.81 311.028 239.761C311.443 236.043 313.5 239.717 314.187 241.011Z" fill="black"/>
</svg>
