<svg width="611" height="488" viewBox="0 0 611 488" fill="none" xmlns="http://www.w3.org/2000/svg">
<path fill-rule="evenodd" clip-rule="evenodd" d="M319.942 183.956C319.467 183.188 318.622 184.101 318.976 184.656C319.298 184.423 319.62 184.19 319.942 183.956ZM333.018 188.225C332.486 187.928 332.305 188.396 332.096 188.935C332.035 189.093 331.971 189.258 331.895 189.411C332.372 189.706 332.592 189.188 332.816 188.664C332.881 188.512 332.946 188.359 333.018 188.225ZM323.81 169.789C322.742 168.26 322.664 168.773 322.575 170.516C322.781 170.395 322.988 170.274 323.194 170.152C323.399 170.032 323.605 169.911 323.81 169.789ZM469.703 87.0737C468.359 87.7805 468.215 88.2939 469.303 89.1586C469.432 88.486 469.527 87.9927 469.703 87.0737ZM319.469 158.386C319.786 159.554 321.088 159.806 321.088 158.386H319.469ZM420.203 98.1643C420.978 98.4414 421.374 98.5833 421.723 98.4936C422.086 98.4006 422.399 98.0565 423.037 97.3538C422.723 97.4441 422.441 97.5251 422.171 97.6021C421.953 97.6643 421.743 97.7239 421.531 97.7848C421.124 97.9013 420.706 98.0204 420.203 98.1643ZM384.245 217.95C383.786 217.223 383.328 216.497 382.87 215.77C382.715 216.304 382.56 216.839 382.405 217.373L382.404 217.377L382.29 217.771C382.941 217.83 383.593 217.89 384.245 217.95ZM477.156 69.2089C476.975 70.1794 476.885 70.6593 477.056 70.9338C477.222 71.2022 477.639 71.2738 478.462 71.4163L477.845 70.3715L477.767 70.2403C477.578 69.9218 477.381 69.5884 477.156 69.2089ZM469.882 72.245C469.826 71.929 469.769 71.6125 469.711 71.2965L469.702 71.2483C469.648 70.9485 469.594 70.6486 469.54 70.3481C469.442 70.8307 469.07 70.8046 468.708 70.7785C468.396 70.7564 468.093 70.735 467.977 71.0382C467.404 72.5388 469.226 72.3353 469.882 72.245ZM331.349 184.215C330.95 183.327 330.862 183.258 329.991 183.072C330.215 183.958 330.214 184.65 330.213 185.537V185.721C331.636 185.495 332.084 185.378 332.11 183.678L331.349 184.215ZM327.197 187.352C327.009 188.139 326.477 187.949 326.023 187.786C325.612 187.639 325.265 187.515 325.296 188.161C325.278 187.787 326.93 190.241 326.836 190.162C327.667 190.866 328.151 190.799 329.093 189.992C327.75 189.935 327.595 189.182 327.387 188.17C327.334 187.912 327.277 187.637 327.197 187.352ZM480.25 71.51C479.957 72.2664 479.664 73.0234 479.371 73.7797L479.307 73.947C479.035 74.6478 478.764 75.3486 478.492 76.0487C478.369 76.3666 478.274 76.6471 478.191 76.8894C477.802 78.0366 477.696 78.3478 476.273 77.8451C476.321 77.7514 476.438 77.566 476.584 77.3338V77.3331C477.024 76.6337 477.731 75.5085 477.652 75.1679C477.579 74.8473 476.877 74.451 476.241 74.0923C475.849 73.8701 475.481 73.6626 475.303 73.4959C474.787 73.014 474.599 72.5749 474.401 72.1104C474.284 71.8373 474.163 71.5542 473.969 71.249C474.177 70.4833 474.015 70.1252 473.483 70.1768C473.331 70.6393 473.178 71.1011 473.025 71.5629L473.015 71.5924L472.896 71.9511C472.924 72.6626 473.238 72.9344 473.607 73.2536C473.891 73.4993 474.207 73.7723 474.45 74.2951L474.496 74.3948C474.848 75.1518 474.95 75.37 474.894 75.5079C474.871 75.5634 474.822 75.6056 474.754 75.6652C474.612 75.789 474.384 75.9864 474.127 76.5306C473.891 77.0319 473.727 77.5814 473.567 78.1155C473.263 79.1322 472.976 80.0954 472.236 80.5746C472.842 80.8738 473.448 81.173 474.055 81.4715C472.639 83.2171 475.583 82.3671 476.07 82.1977L476.069 82.2011L476.068 82.2044C475.57 83.3904 475.073 84.5758 474.577 85.7618C473.473 85.0678 472.782 83.9132 472.095 82.7646C471.854 82.361 471.612 81.9574 471.354 81.5753C470.597 83.1548 469.841 84.7351 469.084 86.3154C469.429 86.2799 469.773 86.2437 470.118 86.2083C470.526 86.1661 470.935 86.1239 471.342 86.0811C471.318 86.132 471.251 86.2491 471.161 86.4037L471.161 86.4044C470.855 86.9352 470.292 87.9097 470.355 88.1727C470.507 88.7985 471.112 88.9826 471.704 89.1626C472.425 89.3822 473.126 89.5957 472.971 90.5903C472.934 90.8226 470.638 93.4242 470.244 93.6752C470.486 93.7977 470.701 93.8833 470.885 93.9576C471.576 94.2341 471.833 94.3371 471.506 95.5453C470.97 95.1818 470.435 94.8177 469.899 94.4536C469.798 94.6564 469.695 94.8579 469.59 95.06L469.59 95.0607C469.221 95.7755 468.85 96.495 468.623 97.2808C468.679 97.9401 468.575 98.5646 468.309 99.1549C467.993 99.683 467.637 100.176 467.242 100.632C466.928 101.559 466.828 106.619 467.205 107.444C468.048 106.222 469.931 108.38 466.753 108.38C466.487 108.38 466.276 108.369 466.104 108.359C465.374 108.318 465.353 108.317 464.922 109.428C464.504 110.509 464.278 111.452 465.464 111.556C464.747 113.142 464.73 114.436 464.708 115.974C464.704 116.35 464.698 116.741 464.682 117.154C464.632 118.473 464.365 119.786 464.101 121.087C464.024 121.467 463.948 121.846 463.876 122.224C464.017 121.997 464.159 121.769 464.3 121.541C464.441 121.313 464.582 121.086 464.723 120.858C465.348 122.353 465.07 123.656 464.75 125.153C464.68 125.48 464.608 125.817 464.543 126.167C464.089 125.495 463.864 125.897 463.627 126.321C463.451 126.636 463.268 126.962 462.981 126.87C462.166 126.609 462.194 126.389 462.236 126.043C462.266 125.803 462.304 125.503 462.074 125.088C461.968 124.896 461.888 124.734 461.818 124.592C461.566 124.085 461.444 123.839 460.742 123.418C459.89 122.908 458.577 122.749 457.405 122.608C456.942 122.552 456.501 122.499 456.119 122.427C453.885 122.009 451.647 121.9 449.388 121.789L449.298 121.785C440.724 121.367 432.18 121.26 423.608 121.789C415.722 122.276 407.644 123.519 399.911 125.201C399.359 125.321 398.809 125.441 398.26 125.56C390.599 127.22 383.091 128.847 375.65 131.674C374.965 131.935 374.278 132.322 373.592 132.708V132.709C372.737 133.191 371.881 133.673 371.027 133.911C370.425 134.079 369.822 134.176 369.215 134.275C368.349 134.416 367.474 134.558 366.578 134.907C364.56 135.694 362.503 136.376 360.446 137.058C358.784 137.609 357.122 138.161 355.479 138.767C354.428 139.156 353.353 139.527 352.271 139.902C349.278 140.936 346.229 141.99 343.46 143.478C342.63 143.924 341.839 144.451 341.047 144.978C340.277 145.49 339.507 146.004 338.699 146.443C338.361 146.628 337.972 146.808 337.562 146.998C336.105 147.676 334.386 148.475 333.75 149.989C333.432 150.745 333.487 151.293 333.684 152.077C334.049 153.528 334.343 153.496 335.23 153.399C335.304 153.39 335.383 153.382 335.466 153.374C336.408 153.281 337.523 152.728 338.583 152.203C339.207 151.894 339.811 151.595 340.349 151.404C344.324 149.997 348.347 148.87 352.389 147.743C355.441 146.893 358.498 145.766 361.549 144.641C365.755 143.091 369.949 141.545 374.101 140.732C376.235 140.314 378.314 139.536 380.395 138.756C382.456 137.984 384.521 137.21 386.647 136.785C386.952 136.724 387.445 136.524 387.998 136.3C389.145 135.835 390.548 135.265 391.067 135.615C391.203 135.708 391.472 136.477 391.687 137.094C391.794 137.398 391.888 137.666 391.945 137.796C392.576 139.212 393.3 140.58 394.147 141.848C396.022 144.656 398.366 147.063 400.69 149.448L400.69 149.449C401.532 150.312 402.37 151.173 403.183 152.048C405.746 154.812 408.063 157.785 410.388 160.769V160.77C411.231 161.851 412.075 162.934 412.932 164.008C413.084 163.81 413.235 163.612 413.387 163.415L413.77 162.914C413.499 165.263 414.919 167.01 416.231 168.623C416.287 168.692 416.342 168.759 416.397 168.828C416.454 168.899 416.512 168.969 416.568 169.04C418.219 171.099 419.547 173.034 420.849 175.381C421.59 176.715 422.473 177.934 423.348 179.14C423.735 179.675 424.121 180.207 424.491 180.745C425.182 181.749 425.738 182.873 426.297 184.004C426.699 184.818 427.103 185.634 427.56 186.412C428.515 188.039 429.464 189.677 430.413 191.316C431.956 193.979 433.498 196.641 435.063 199.249C436.253 201.233 437.193 203.464 438.135 205.722C438.361 206.263 438.723 206.973 439.119 207.75V207.75C440.036 209.549 441.133 211.702 441.133 212.916C441.079 213.201 441.227 213.965 441.383 214.765C441.691 216.353 442.027 218.08 440.858 216.475C440.779 216.613 440.7 216.751 440.621 216.889L440.504 217.091C440.427 217.225 440.349 217.36 440.272 217.494C440.187 217.642 440.102 217.79 440.016 217.937C440.497 217.711 440.977 217.484 441.458 217.258C440.538 218.194 441.281 218.615 441.971 219.007C442.375 219.237 442.761 219.455 442.783 219.762C442.672 219.882 442.562 220.002 442.451 220.122L442.055 220.551C441.641 221.511 441.101 221.635 440.438 220.925C440.134 220.945 439.931 220.878 439.739 220.815C439.469 220.725 439.222 220.643 438.746 220.822C439.084 221.415 439.465 221.588 439.82 221.748C440.281 221.956 440.698 222.144 440.921 223.21C441.2 224.547 440.543 225.039 439.671 225.692C439.437 225.868 439.186 226.054 438.936 226.272V226.271L438.904 226.265C438.969 225.218 438.514 224.447 437.695 223.959V226.017C437.92 226.063 438.145 226.109 438.37 226.155L438.376 226.157L438.904 226.265C438.903 226.277 438.903 226.29 438.902 226.302L438.936 226.272C438.743 227.102 438.178 226.949 437.503 226.767C437.384 226.735 437.263 226.702 437.139 226.673C435.683 226.337 434.11 225.764 432.62 225.223C432.154 225.053 431.695 224.886 431.25 224.73C427.225 223.32 423.168 222.131 419.006 221.167C411.939 219.529 404.915 219.168 397.834 218.803H397.834C395.399 218.677 392.957 218.551 390.505 218.373C390.517 218.314 390.529 218.259 390.541 218.206C390.661 217.644 390.711 217.415 390.68 217.2C390.66 217.053 390.602 216.913 390.504 216.676C390.49 216.642 390.476 216.605 390.459 216.567C390.611 216.938 390.34 216.97 390.064 217.002C389.646 217.051 389.22 217.101 390.273 218.35C387.522 218.856 384.634 218.814 381.764 218.773C379.989 218.747 378.22 218.722 376.494 218.826C376.54 218.71 376.601 218.589 376.66 218.469C376.872 218.043 377.088 217.611 376.736 217.314C375.204 219.802 371.101 219.743 367.599 219.692C366.214 219.673 364.922 219.654 363.921 219.795C362.712 219.965 361.512 220.227 360.312 220.488C359.453 220.676 358.594 220.863 357.732 221.016C357.588 221.042 357.443 221.068 357.298 221.093C356.428 221.245 355.553 221.398 354.702 221.657C354.391 221.751 354.009 221.945 353.607 222.149C352.828 222.544 351.972 222.979 351.401 222.805C352.277 220.823 351.85 221.396 351.437 221.95C351.251 222.198 351.069 222.443 351.008 222.453C350.888 222.473 350.751 222.498 350.601 222.525C350 222.634 349.198 222.78 348.505 222.78C348.912 220.947 349.438 219.174 349.964 217.402C350.713 214.876 351.462 212.352 351.862 209.661C351.914 209.315 351.977 208.942 352.042 208.552V208.552C352.516 205.728 353.148 201.965 350.942 200.188C349.848 199.307 348.199 198.974 346.768 198.686H346.767C346.398 198.612 346.043 198.54 345.716 198.462C345.172 198.334 344.502 198.247 343.79 198.154C342.217 197.951 340.444 197.721 339.397 196.957C338.951 196.631 338.637 196.315 338.336 196.013C337.837 195.51 337.375 195.045 336.405 194.631C336.05 194.48 335.733 194.329 335.439 194.189C334.246 193.62 333.426 193.23 331.973 193.726C332.091 193.56 332.216 193.402 332.337 193.248C332.977 192.439 333.511 191.763 332.296 190.873C332.06 190.7 331.733 190.689 331.413 190.678C330.928 190.661 330.458 190.645 330.333 190.075C329.546 190.7 329.473 191.236 329.377 191.938C329.342 192.193 329.304 192.471 329.227 192.783C329.253 193.277 329.369 193.748 329.575 194.195L328.847 194.525L327.87 194.966C328.086 194.316 327.795 194.285 327.48 194.252C327.268 194.23 327.045 194.206 326.96 193.99C326.727 193.398 326.768 192.574 326.806 191.833C326.819 191.573 326.832 191.323 326.832 191.096C325.66 191.512 324.435 192.026 323.923 193.396C322.787 192.635 322.908 192.436 323.373 191.67C323.495 191.469 323.641 191.228 323.794 190.928C322.59 190.609 322.335 191.305 322.152 192.425C321.696 192.266 321.239 192.108 320.783 191.95L320.769 191.945L320.245 191.764C321.677 191.752 322.021 190.495 322.055 189.13C321.816 189.218 321.576 189.305 321.336 189.393L321.328 189.396C321.014 189.511 320.699 189.626 320.383 189.741L320.04 191.723C319.242 192.483 317.282 191.304 316.377 190.76L316.375 190.759C316.285 190.705 316.206 190.657 316.139 190.618L315.908 190.483C313.501 189.085 312.623 188.575 312.976 185.261C313.102 184.082 313.289 182.9 313.478 181.716C313.746 180.026 314.016 178.333 314.104 176.638C314.25 173.816 314.009 170.821 313.778 167.965C313.748 167.584 313.717 167.206 313.688 166.83C313.509 164.548 313.29 162.277 313.071 160.009V160.008C312.697 156.145 312.325 152.287 312.152 148.383C312.113 147.485 312.073 146.587 312.032 145.688L312.032 145.687C311.921 143.231 311.809 140.774 311.723 138.317C311.708 137.876 311.673 137.429 311.638 136.987C311.463 134.753 311.3 132.674 313.774 132.476C313.411 131.184 314.496 129.691 315.616 128.983C316.007 127.981 316.435 127.891 316.9 128.715C317.304 128.858 317.68 128.791 318.027 128.513C319.024 128.26 320.143 127.189 321.196 126.181C321.866 125.54 322.51 124.924 323.079 124.56C323.469 124.311 323.984 124.03 324.547 123.724H324.547C326.059 122.9 327.924 121.885 328.671 120.757C329.226 119.92 329.002 119.604 328.749 119.248C328.549 118.967 328.333 118.661 328.467 118.056C328.854 116.3 330.2 118.552 330.56 119.152C330.583 119.192 330.604 119.226 330.618 119.249C330.779 119.068 331.084 118.836 331.425 118.576C332.151 118.025 333.037 117.352 333.022 116.789L331.609 116.506C331.76 116.409 331.965 116.253 332.194 116.08C332.747 115.662 333.441 115.136 333.864 115.043C334.082 114.996 334.236 114.945 334.351 114.907C334.492 114.86 334.575 114.832 334.647 114.853C334.749 114.883 334.829 115.012 335.023 115.324C335.099 115.449 335.194 115.602 335.316 115.789C335.396 115.651 335.508 115.423 335.636 115.16V115.159C335.967 114.486 336.411 113.58 336.721 113.344C336.843 113.251 337.316 113.177 337.737 113.112C338.033 113.065 338.303 113.022 338.409 112.98C339.15 112.686 339.437 112.196 339.715 111.723C339.937 111.345 340.152 110.978 340.588 110.731C340.842 110.588 341.128 110.639 341.4 110.688C341.637 110.731 341.862 110.771 342.048 110.68C342.382 110.516 342.542 110.143 342.701 109.77C342.846 109.432 342.991 109.094 343.265 108.91C343.536 108.729 344.03 108.727 344.523 108.725C344.941 108.723 345.358 108.721 345.632 108.609C346.294 108.337 346.495 108.078 346.775 107.715C346.914 107.535 347.073 107.329 347.318 107.083C347.911 106.488 348.478 106.283 349.07 106.068C349.512 105.908 349.969 105.743 350.462 105.406C351.048 105.007 351.303 104.361 351.539 103.765C351.783 103.145 352.007 102.58 352.56 102.4C353.185 102.199 353.609 102.37 353.953 102.509C354.407 102.692 354.721 102.819 355.169 101.951C355.241 101.814 355.154 101.649 355.057 101.466C354.912 101.192 354.745 100.878 355.047 100.549C355.587 99.9628 355.852 100.492 356.099 100.986C356.137 101.061 356.174 101.135 356.212 101.205L356.214 101.201L356.216 101.197C356.543 100.504 356.87 99.8115 357.196 99.1188C358.161 99.7124 358.288 99.4748 358.517 99.0485C358.662 98.7774 358.848 98.43 359.315 98.171C359.572 98.0291 359.807 98.09 360.047 98.1523C360.306 98.2192 360.571 98.2881 360.876 98.1021C361.134 97.9454 361.264 97.6777 361.393 97.4127C361.48 97.2339 361.566 97.0566 361.69 96.914C361.871 96.7079 362.026 96.4783 362.182 96.2494C362.539 95.7233 362.893 95.2012 363.535 94.975C363.202 95.0915 365.931 95.0031 365.687 94.8719C365.422 94.4342 365.156 93.9965 364.89 93.5587C365.179 93.5587 365.461 93.5654 365.738 93.5721H365.738C366.829 93.5969 367.845 93.621 368.947 93.2361L368.97 93.2288C369.459 93.0581 370.207 92.7984 370.608 92.4544L370.641 92.4262C371.135 92.0012 371.352 91.8158 371.441 91.5715C371.51 91.3814 371.503 91.1559 371.489 90.7556C371.482 90.5461 371.474 90.2891 371.474 89.9638C373.016 91.0668 374.98 90.6813 376.502 89.4023C376.843 89.1165 377.131 88.8066 377.417 88.498C377.8 88.0857 378.18 87.6768 378.678 87.3314C379.052 87.1139 379.433 86.9104 379.819 86.7216C380.303 86.1594 380.787 86.1541 381.273 86.7062C381.757 86.5603 381.896 86.4465 382.122 86.2611C382.217 86.1835 382.327 86.0931 382.484 85.9827C382.636 85.644 382.798 85.3114 382.972 84.9854C383.543 84.9185 384.105 84.8027 384.661 84.638C385.284 84.45 385.837 84.1802 386.356 83.9272C387.628 83.3068 388.696 82.786 390.117 83.8027L390.274 83.4447L390.279 83.4319C390.481 82.9694 390.683 82.5069 390.884 82.0444C391.487 83.1026 391.955 82.6957 392.578 82.1529C392.835 81.9293 393.117 81.683 393.447 81.5063C393.688 81.3771 393.966 81.2975 394.238 81.2198C394.499 81.1449 394.753 81.0719 394.963 80.9581C395.204 81.0217 395.446 81.086 395.686 81.1502C395.891 80.4408 396.094 79.7313 396.298 79.0218C396.407 79.0693 396.599 79.1724 396.833 79.2976C397.489 79.6483 398.471 80.173 398.832 80.1342C399.218 80.0934 399.645 79.6731 400.064 79.2601C400.409 78.9201 400.749 78.5847 401.056 78.471C401.648 78.2521 401.782 78.3224 401.977 78.4254C402.123 78.5037 402.304 78.5995 402.744 78.6028C402.846 78.6035 402.941 78.6068 403.031 78.6095C403.63 78.6269 403.987 78.6376 404.576 77.9937C402.674 77.4389 404.343 77.1276 405.518 76.9081C405.758 76.8633 405.977 76.8224 406.141 76.7836C406.558 76.6865 406.919 76.6444 407.245 76.6069C408.096 76.5085 408.71 76.4376 409.466 75.4724H408.381C409.174 74.6619 409.182 74.6639 409.591 74.7629C409.734 74.7971 409.926 74.8439 410.218 74.8714C410.297 74.8787 410.434 74.9309 410.6 74.9945C411.182 75.2174 412.118 75.5755 412.121 74.5862C413.577 75.5507 413.594 75.5527 415.096 75.1177C415.368 75.0387 415.624 74.8868 415.881 74.7341C416.252 74.5139 416.626 74.2917 417.057 74.283C417.397 74.2763 417.691 74.3553 417.974 74.4309C418.286 74.5146 418.585 74.5943 418.918 74.5534C419.26 74.5126 420.369 74.0561 420.918 73.8299C420.981 73.8038 421.036 73.781 421.082 73.7623C421.43 73.6197 421.72 73.3989 422.006 73.1813C422.306 72.9524 422.6 72.7275 422.95 72.6037C423.351 72.4618 423.81 72.4852 424.27 72.5087C424.675 72.5294 425.08 72.5502 425.449 72.4591C426.216 72.2697 426.88 71.9739 427.514 71.6908C428.823 71.1064 430.007 70.5777 431.721 71.154C431.984 68.6681 434.673 69.136 436.225 69.4064L436.356 69.4291C436.641 69.4787 436.888 69.5489 437.118 69.6152C437.749 69.7953 438.255 69.9405 439.061 69.5115C439.451 69.3046 439.768 69.0449 440.083 68.7866C440.494 68.4499 440.902 68.1153 441.465 67.9004C442.108 67.6554 442.939 67.4667 443.661 67.302C443.799 67.2706 443.933 67.2405 444.06 67.2103C444.554 67.035 445.059 66.9788 445.574 67.0423C446.124 67.1294 446.58 67.4098 446.941 67.883C446.932 67.9091 446.939 67.9232 446.969 67.9205C446.96 67.9078 446.951 67.8957 446.941 67.883C447.019 67.6742 448.223 66.6715 448.085 66.7954C448.368 66.5417 448.602 66.3985 448.81 66.272C449.261 65.9962 449.578 65.8021 449.957 64.7232C449.637 64.6475 449.316 64.5712 448.994 64.4949C448.673 64.4193 448.353 64.343 448.032 64.2667C448.145 64.258 448.256 64.2493 448.364 64.2399C449.196 64.1696 449.869 64.1134 450.65 64.4963C450.908 64.6234 451.242 64.9822 451.587 65.353C452.054 65.8563 452.542 66.3817 452.894 66.3824C453.998 66.3837 454.384 64.6361 454.274 63.7265C455.201 66.1501 455.991 66.5537 458.072 65.3148C458.194 65.2419 458.316 65.1696 458.439 65.0966L458.454 65.0873C458.571 65.0177 458.689 64.948 458.805 64.8778C459.3 64.2948 459.793 64.3055 460.282 64.9106C460.573 65.0886 460.863 65.266 461.155 65.444L461.375 65.0317C461.651 64.5157 461.927 63.9996 462.204 63.4829C462.946 64.6315 463.651 64.6877 464.862 64.4193C465.274 64.3283 465.899 63.8691 466.501 63.4267C467.12 62.9716 467.714 62.5352 468.026 62.5352C468.196 62.5352 468.389 62.7574 468.608 63.0104C468.849 63.2881 469.122 63.6034 469.434 63.7031C470.419 64.0204 471.949 63.2225 472.3 62.1637C472.487 62.6054 472.673 63.0479 472.859 63.4903C472.975 63.3691 473.091 63.2473 473.207 63.1262C473.557 62.7594 473.906 62.3919 474.254 62.0225C474.378 63.2279 475.197 63.2092 475.911 63.1931C476.438 63.1811 476.907 63.1703 476.998 63.6516C477.106 64.2151 475.642 65.438 474.77 66.1662C474.538 66.3596 474.348 66.5189 474.241 66.6207C475.62 67.555 477.316 65.9232 478.564 64.7232C478.816 64.4802 479.05 64.2546 479.26 64.0719C479.901 64.853 480.117 65.2633 479.529 66.1568C478.989 66.9774 478.743 66.8061 478.457 66.6066C478.193 66.4226 477.896 66.2151 477.304 66.7418C477.713 67.5142 478.082 67.3201 478.545 67.0772C478.664 67.0142 478.789 66.9486 478.922 66.8951C478.757 67.9841 478.904 68.0363 479.155 68.1246C479.334 68.1882 479.566 68.2705 479.774 68.7632C480.079 69.4894 480.126 70.0724 480.183 70.7765C480.201 71.0054 480.221 71.247 480.25 71.51ZM290.164 165.673C290.72 165.62 290.877 165.908 291.018 166.168C291.138 166.387 291.246 166.585 291.574 166.537C291.852 166.496 292.076 166.166 292.305 165.826C292.505 165.532 292.709 165.231 292.956 165.11C294.08 164.557 295.712 164.472 297.209 164.395C297.912 164.359 298.584 164.323 299.162 164.242C300.113 164.109 301.009 163.796 301.895 163.486V163.485C302.728 163.195 303.551 162.906 304.407 162.772C305.134 162.658 305.664 162.806 306.354 163.032C306.404 163.049 306.452 163.064 306.498 163.079C307.142 163.29 307.46 163.394 307.652 163.628C307.838 163.855 307.906 164.205 308.039 164.895L308.044 164.923C308.749 168.571 308.205 172.451 307.661 176.329C306.949 181.408 306.237 186.482 308.333 191.025C297.528 190.926 286.701 191.169 275.959 192.591C275.959 191.524 275.966 190.458 275.973 189.392C275.997 185.873 276.021 182.359 275.784 178.842C275.676 177.234 275.526 175.63 275.376 174.025V174.025C275.332 173.556 275.289 173.086 275.246 172.616C275.021 170.141 275.074 170.129 276.675 169.76C276.777 169.737 276.886 169.712 277.001 169.684C277.571 169.55 277.935 169.261 278.317 168.956C278.61 168.723 278.914 168.481 279.331 168.291C279.816 168.071 280.121 168.18 280.484 168.31C280.663 168.374 280.855 168.443 281.091 168.48C282.009 168.625 282.273 168.541 282.787 168.378C282.986 168.315 283.222 168.24 283.548 168.162C284.157 168.016 284.744 167.918 285.312 167.824C287.081 167.529 288.665 167.265 290.164 165.673ZM480.097 90.7014C479.941 90.599 479.786 90.4973 479.63 90.3949C477.783 94.7889 476.573 99.3684 475.347 104.008C475.169 104.684 474.989 105.361 474.808 106.04C474.07 108.808 473.334 111.576 472.6 114.346C472.465 114.855 472.301 115.383 472.134 115.923C471.577 117.714 470.983 119.631 471.285 121.384C473.618 117.345 475.838 113.224 477.946 109.033C478.974 106.99 479.977 104.93 480.957 102.858C481.084 102.589 481.242 102.303 481.404 102.009C481.758 101.369 482.136 100.686 482.273 100.036C482.448 99.2011 482.626 98.9541 482.576 98.8035C482.529 98.6636 482.285 98.6074 481.658 98.2419C482.158 97.6048 482.484 97.7808 482.755 97.9274C482.91 98.0104 483.047 98.0847 483.189 97.9923C483.537 97.7654 484.01 97.0613 484.386 96.5037C484.54 96.2742 484.678 96.0687 484.784 95.9328C484.493 95.8398 484.012 95.7387 483.454 95.6209C482.017 95.3177 480.068 94.9074 479.533 94.2481C478.677 93.1939 479.592 92.275 480.489 91.3734C480.573 91.2891 480.657 91.2054 480.739 91.1211C480.525 90.9812 480.311 90.8413 480.097 90.7014Z" fill="#D7D7FD"/>
<path fill-rule="evenodd" clip-rule="evenodd" d="M236.293 268.875C236.04 270.336 235.409 271.024 236.071 272.366C236.633 273.506 238.244 274.253 239.325 273.964L236.293 268.875ZM206.995 216.905L201.661 218.96C203.119 220.567 204.509 222.256 206.116 223.683L206.995 216.905ZM294.982 222.166C292.438 220.726 289.588 220.563 286.799 220.378C287.223 222.951 287.647 225.524 288.072 228.096C290.375 226.119 292.679 224.143 294.982 222.166ZM233.893 421.285C233.386 420.275 229.923 412.471 229.203 412.872C228.821 413.085 228.791 417.429 228.735 418.047C228.537 420.245 228.338 422.442 228.14 424.64C230.188 423.828 232.376 423.154 233.893 421.285ZM209.699 358.199C210.223 359.923 210.747 361.648 211.271 363.373C211.52 364.193 211.666 365.402 212.107 366.126C212.679 367.064 212.247 367.616 213.012 366.589C213.833 365.485 214.078 362.542 214.435 361.19C214.976 359.135 215.517 357.083 216.058 355.029C213.507 355.005 211.961 357.364 209.699 358.199ZM156.1 256.637C152.964 259.045 149.789 261.434 147.06 264.427C149.461 264.259 152.803 266.114 155.064 265.243C156.108 265.493 156.453 265.048 156.1 263.906V261.534V256.637ZM202.603 273.672V287.733C205.532 284.93 208.614 282.326 211.431 279.378C208.489 277.476 205.546 275.574 202.603 273.672ZM307.285 310.104C306.361 316.363 306.31 322.805 306.056 329.139C306.012 330.264 305.626 331.956 306.293 332.941C306.962 333.928 308.868 334.475 309.837 335.003C312.562 336.487 315.27 338.014 317.988 339.516C314.42 329.712 310.852 319.908 307.285 310.104ZM376.487 271.609C383.211 267.896 389.936 264.183 396.66 260.469C390.067 257.333 383.474 254.198 376.881 251.062C376.75 257.911 376.618 264.761 376.487 271.609ZM307.271 289.093C308.5 289.192 308.694 283.933 308.897 282.542C309.284 279.902 309.681 277.264 310.088 274.628C310.902 269.358 311.758 264.096 312.659 258.844C314.461 248.341 316.448 237.877 318.65 227.471C316.283 226.992 314.109 226.647 311.798 225.874C309.931 225.248 307.708 225.588 306.042 224.289C305.826 229.165 306.909 234.348 307.31 239.224C307.775 244.866 308.025 250.478 307.984 256.146C307.903 267.128 307.531 278.114 307.271 289.093ZM152.494 437.895C153.659 437.546 152.073 419.6 152.002 417.011C151.799 409.518 151.76 402.02 151.879 394.525C145.601 398.948 139.176 403.021 132.544 406.695C134.248 409.179 135.846 411.858 137.732 414.17C139.676 416.55 141.905 418.501 143.706 421.065C147.332 426.229 149.816 432.091 152.494 437.895ZM303.58 331.729C303.872 326.331 304.142 320.944 304.627 315.562C304.834 313.272 306.804 301.102 303.649 301.387C301.855 301.55 298.707 304.5 297.062 305.534C294.888 306.9 292.712 308.261 290.528 309.606C286.218 312.259 281.879 314.853 277.554 317.475C286.229 322.227 294.904 326.978 303.58 331.729ZM284.849 219.485C281.256 219.184 277.782 218.884 274.238 218.132C272.327 217.727 270.415 217.783 268.494 217.509C267.118 217.313 264.428 216.043 263.145 216.459C261.534 216.981 260.949 226.051 260.728 228.327C260.371 231.994 260.13 236.442 261.588 239.886C264.398 246.526 271.969 241.344 275.652 238.558C278.809 236.17 282.385 233.752 285.186 230.853C287.666 228.285 285.439 222.803 284.849 219.485ZM303.484 291.688C306.191 290.457 306.148 288.913 306.266 285.731C306.409 281.865 306.492 277.994 306.591 274.126C306.766 267.233 306.932 260.337 306.877 253.441C306.824 246.704 306.53 239.978 305.844 233.283C305.601 230.916 305.842 226.872 304.732 224.853C303.718 223.011 300.573 222.991 298.856 223.105C296.921 223.233 295.353 225.298 293.925 226.603C292.344 228.05 289.093 230.086 288.834 232.242C288.544 234.65 289.721 238.087 290.178 240.423C291.847 248.948 293.877 257.389 296.016 265.778C298.235 274.482 300.483 283.274 303.484 291.688ZM234.7 271.281C234.875 269.366 235.51 267.766 234.652 265.942C233.915 264.373 232.715 262.797 231.813 261.311C229.233 257.057 226.34 252.982 223.53 248.918C220.956 245.196 218.319 241.514 215.621 237.904C214.119 235.894 212.57 233.927 211.03 231.953C209.902 230.508 208.833 228.477 207.239 227.721C206.063 236.018 205.092 244.352 204.334 252.711C203.968 256.752 203.652 260.799 203.387 264.849C203.312 265.993 202.523 269.854 203.027 270.919C203.558 272.037 206.802 273.534 207.796 274.219C210.572 276.136 212.729 279.024 215.37 275.873C217.188 273.703 218.652 270.644 220.683 268.751C221.742 267.764 222.739 267.81 223.926 267.225C225.307 266.545 225.35 265.889 227 266.815C229.779 268.374 231.468 270.678 234.7 271.281ZM95.5534 313.974C95.5534 319.719 95.2037 324.441 98.67 329.092C101.699 333.156 104.847 334.096 109.107 335.7C111.616 336.644 111.791 335.774 113.824 334.179C115.756 332.665 117.86 331.45 119.765 329.888C123.872 326.522 127.976 323.049 131.967 319.508C133.309 318.317 133.111 318.723 132.907 317.294C132.721 315.993 131.889 314.335 131.435 313.097C130.612 310.857 129.644 308.689 128.674 306.525C127.574 304.07 126.615 301.403 125.248 299.114C124.681 298.165 124.008 297.305 123.346 296.439C121.952 294.615 122.002 294.683 120.335 296.173C116.817 299.321 113.544 302.729 109.584 305.19C104.9 308.103 100.226 311.035 95.5534 313.974ZM201.634 269.474C202.142 261.227 202.715 253.025 203.595 244.815C204.047 240.6 204.574 236.396 205.085 232.189C205.294 230.476 206.098 227.602 205.65 225.938C205.21 224.3 203.266 222.741 202.2 221.556C201.913 221.238 201.032 219.901 200.653 219.841C200.247 219.777 198.72 221.034 198.28 221.317C196.723 222.32 195.193 223.375 193.687 224.473C190.849 226.542 188.099 228.762 185.407 231.065C179.764 235.894 174.382 241.091 168.859 246.089C173.919 251.071 180.148 254.941 185.807 258.976C189.152 261.362 192.515 263.722 195.921 265.997C197.648 267.15 199.651 268.912 201.634 269.474ZM132.454 416.953C128.367 419.989 124.465 423.193 119.843 425.14C115.243 427.08 110.696 427.826 105.94 428.979C103.542 429.56 101.289 430.196 98.841 430.603C97.4695 430.831 95.3467 430.743 94.0961 431.394C92.9826 431.127 92.5858 431.554 92.9069 432.673C92.9188 433.022 92.9307 433.37 92.9427 433.718C93.2578 438.559 96.0277 444.385 98.4436 448.32C99.8539 450.619 101.651 452.757 103.436 454.689C105.453 456.87 106.615 458.408 109.425 457.494C114.162 455.954 118.343 452.853 123.145 451.485C126.943 450.404 130.098 448.137 133.802 446.963C138.37 445.516 142.89 443.867 147.521 442.658C145.452 438.173 143.602 433.502 140.954 429.393C138.238 425.176 135.243 421.124 132.454 416.953ZM157.517 266.01C166.063 267.921 175.326 269.69 182.975 274.646C185.96 276.58 189.744 279.57 190.618 283.571C191.663 288.352 187.554 291.314 184.122 292.807C180.002 294.598 175.517 295.285 171.151 295.85C168.84 296.149 166.518 296.313 164.196 296.461C162.317 296.581 159.13 296.117 157.412 296.954C156.336 296.713 155.963 297.203 156.293 298.424C156.273 298.863 156.253 299.302 156.234 299.74L156.056 303.682C155.937 306.308 155.819 308.933 155.699 311.558C155.441 317.277 155.183 322.996 154.925 328.715C159.401 325.599 163.009 321.138 167.384 317.814C169.463 316.234 171.528 314.651 173.6 313.076C174.469 312.416 175 311.49 175.855 310.875C176.988 310.059 177.993 309.568 179.057 308.5C183.4 304.136 188.23 300.363 192.837 296.357C194.929 294.537 197.22 292.864 199.211 290.911C201.297 288.866 201.008 287.182 200.957 284.241C200.903 281.128 201.92 277.263 201.449 274.261C201.845 273.243 201.54 272.609 200.536 272.36C199.866 271.878 199.195 271.396 198.524 270.914C197.187 269.953 195.849 268.992 194.512 268.031C189.191 264.209 183.87 260.386 178.549 256.563C175.891 254.654 173.234 252.744 170.575 250.834C169.833 250.302 167.412 247.892 166.579 247.963C165.729 248.035 164.255 249.899 163.618 250.492C162.641 251.401 161.693 252.357 160.637 253.153C160.111 253.563 159.561 253.928 158.989 254.25C158.075 254.349 157.757 254.913 158.036 255.942C157.232 258.836 157.674 262.97 157.517 266.01ZM276.028 402.448C274.093 392.284 271.597 380.249 264.049 373.336C256.393 366.324 245.201 369.033 239.213 377.267C236.214 381.392 234.354 386.268 232.973 391.32C231.555 396.506 229.466 403.263 229.848 408.747C230.016 411.152 231.85 413.736 232.898 415.833C233.979 418 234.697 421.106 237.246 420.356C241.198 419.192 245.217 416.52 248.915 414.608C252.655 412.673 256.594 411.081 260.472 409.213C263.047 407.972 265.72 407.029 268.289 405.77C270.725 404.578 273.938 404.29 276.028 402.448ZM390.379 341.913C395.777 344.083 398.582 340.609 402.381 336.697C405.979 332.992 409.877 329.428 413.19 325.401C416.608 321.249 419.309 316.341 421.936 311.545C424.592 306.698 428.183 301.462 429.818 296.064C430.65 293.317 431.005 290.275 431.529 287.436C431.656 286.753 432.502 284.21 432.233 283.635C431.863 282.845 429.506 282.761 428.859 282.646C423.708 281.731 418.25 281.685 413.084 282.503C403.088 284.086 394.729 290.383 391.569 301.395C387.866 314.303 389.646 328.651 390.379 341.913ZM355.38 229.948C355.297 232.183 360.066 232.804 361.302 233.325C364.158 234.529 366.998 235.8 369.772 237.224C375.484 240.157 381.574 242.068 387.044 245.614C398.834 253.258 411.633 258.647 423.544 265.958C425.4 267.098 429.027 269.843 431.147 269.611C432.273 269.488 431.434 270.506 432.165 268.494C432.428 267.77 432.515 266.828 432.662 266.053C433.104 263.728 433.445 261.382 433.941 259.07C434.757 255.265 435.59 251.735 435.933 247.825C436.079 246.167 436.239 244.512 436.256 242.845C436.274 241.156 436.62 236.923 435.942 235.461C435.491 234.491 435.401 234.824 434.276 234.55C433.632 234.393 432.956 234.067 432.334 233.85C430.875 233.34 429.415 232.85 427.885 232.7C426.373 232.551 425.409 232.035 423.991 231.735C422.504 231.42 420.977 231.802 419.461 231.363C417.826 230.888 417.046 230.455 415.337 230.636C413.68 230.812 413.203 230.399 411.581 229.892C410.227 229.469 408.613 229.765 407.202 229.636C405.494 229.48 403.791 229.24 402.082 229.088C394.396 228.405 386.619 229.418 378.915 229.338C374.726 229.294 370.627 229.989 366.444 229.774C362.788 229.587 359.009 229.631 355.38 229.948ZM375.375 275.454C371.636 277.054 368.169 279.652 364.703 281.889C360.706 284.47 356.88 287.211 353.181 290.305C346.961 295.509 339.703 301.747 338.066 310.827C336.386 320.145 343.59 327.78 350.343 331.592C358.045 335.94 367.005 338.188 375.441 339.848C374.539 318.397 374.751 296.911 375.375 275.454ZM263.525 325.955C261.257 326.66 259.337 328.167 257.232 329.283C255.348 330.283 253.524 331.036 251.763 332.323C248.895 334.42 245.569 336.215 242.57 337.836C235.149 341.848 227.944 346.829 220.596 351.275C218.649 352.454 218.011 353.198 217.352 355.624C216.635 358.258 215.96 360.911 215.27 363.554C214.627 366.02 213.6 368.657 213.87 371.259C214.106 373.524 215.149 375.66 215.935 377.725C217.914 382.923 220.059 388.038 222.276 393.112C224.266 397.667 226.081 402.501 228.635 406.688C230.619 395.059 232.4 382.029 240.094 373.168C247.781 364.314 260.046 364.189 267.454 373.329C270.973 377.671 273.115 383.139 274.799 388.634C275.683 391.52 276.277 394.462 276.846 397.443C277.453 400.628 277.304 402.318 280.432 401.353C282.916 400.586 285.549 399.975 287.984 399.1C289.247 398.647 290.479 398.138 290.536 397.017C290.609 395.601 288.912 392.702 288.411 391.37C285.824 384.496 283.236 377.621 280.647 370.746C277.837 363.281 275.026 355.816 272.215 348.352C270.812 344.627 269.409 340.903 268.006 337.179C266.726 333.784 265.66 328.743 263.525 325.955ZM375.585 267.903C375.627 264.509 375.677 261.115 375.716 257.72C375.74 255.698 376.542 251.786 374.974 250.341C374.002 249.446 371.118 248.759 369.888 248.146C367.461 246.937 364.834 246.398 362.393 245.197C352.833 240.492 342.884 236.574 333.04 232.782C330.918 231.964 328.749 231.295 326.612 230.49C325.459 230.055 321.186 227.503 320.119 228.171C319.185 228.755 318.48 235.716 318.181 237.161C317.472 240.583 316.795 244.013 316.144 247.449C313.618 260.79 311.498 274.224 309.527 287.682C314.763 285.448 319.782 281.578 324.728 278.586C329.867 275.479 334.988 272.378 340.162 269.342C341.622 268.485 346.76 264.545 347.962 266.092C349.891 268.573 345.295 271.483 344.089 272.546C339.423 276.657 334.493 280.242 329.503 283.828C324.332 287.545 318.95 290.829 313.753 294.478C311.877 295.795 308.882 297.399 308.144 299.624C307.195 302.486 307.88 305.964 308.744 308.698C310.865 315.418 313.188 322.054 315.644 328.627C316.762 331.615 317.907 334.59 319.074 337.554C320.464 341.084 322.288 341.83 325.317 343.455C338.218 350.375 351.618 356.943 364.01 364.952C361.936 367.637 356.882 363.228 354.835 362.111C351.045 360.043 347.251 357.982 343.463 355.907C336.407 352.043 329.387 348.102 322.291 344.332C326.839 355.952 332.206 367.147 338.156 377.933C336.654 378.505 337.02 378.535 336.077 377.52C335.283 376.665 334.75 374.99 334.212 373.917C333.099 371.699 332.002 369.473 330.881 367.261C328.556 362.67 326.147 358.149 324.024 353.433C322.428 349.887 321.191 343.688 317.909 341.9C313.82 339.671 309.677 337.502 305.588 335.241C305.588 352.908 306.718 370.183 308.377 387.74C308.461 388.626 309.216 391.239 307.693 390.983C307.006 390.867 306.774 386.023 306.654 385.011C306.1 380.374 305.63 375.725 305.245 371.066C304.48 361.77 304.063 352.436 304.01 343.101C303.028 352.177 302.047 361.254 301.066 370.33L299.671 383.233C299.427 385.492 299.183 387.751 298.938 390.01C298.826 391.048 298.897 392.405 298.573 393.395C298.062 394.952 298.234 394.833 296.633 395.543C298.163 383.724 299.577 371.884 300.828 360.023C301.438 354.235 302.01 348.443 302.538 342.646C302.679 341.087 302.818 339.526 302.954 337.967C303.023 337.172 303.633 334.615 303.294 333.954C302.959 333.3 300.735 332.617 300.094 332.283C298.692 331.552 297.29 330.822 295.89 330.087C291.343 327.7 286.799 325.293 282.302 322.789C280.335 321.693 278.271 320 276.132 319.416C274.002 318.835 272.453 320.5 270.632 321.559C269.214 322.383 265.875 323.48 264.928 324.879C264.047 326.182 266.783 331.394 267.502 333.316C269.53 338.737 271.558 344.16 273.586 349.581C277.698 360.574 281.81 371.567 285.922 382.56C286.927 385.247 287.932 387.934 288.937 390.622C289.581 392.344 290.657 397.251 292.22 397.443C292.911 397.528 294.047 396.683 294.715 396.44C295.713 396.078 296.634 396.083 297.635 395.892C299.469 395.543 301.373 394.48 303.174 393.735C307.803 391.818 312.601 390.58 317.267 388.79C321.955 386.991 326.566 384.97 331.236 383.171C335.477 381.538 339.756 379.677 343.83 377.55C348.132 375.303 352.544 373.322 356.736 370.83C364.372 366.293 371.925 362.056 378.672 356.491C380.258 355.182 381.947 353.869 383.517 352.468C384.892 351.238 387.517 349.72 388.454 348.104C388.811 347.487 389.118 346.279 388.701 345.547C388.253 344.761 386.272 344.833 385.346 344.693C382.426 344.253 379.506 343.811 376.587 343.371C376.811 345.528 377.037 347.683 377.2 349.849C377.314 351.377 378.118 355.415 377.034 356.613C375.543 355.021 376.022 350.262 375.889 348.141C375.817 347.008 376.074 344.79 375.622 343.785C375.127 342.683 373.759 342.698 372.52 342.397C367.262 341.119 362.053 340.047 356.965 338.022C348.371 334.602 338.098 328.828 336.178 317.691C334.177 306.08 342.971 296.02 350.374 289.544C354.808 285.668 359.524 282.311 364.402 279.195C366.682 277.739 368.96 276.283 371.255 274.858C372.089 274.34 374.829 273.272 375.27 272.366C375.72 271.439 375.49 268.96 375.585 267.903ZM191.712 446.213C191.295 446.442 190.877 446.671 190.46 446.9C195.099 432.051 199.694 417.269 203.572 402.141C205.444 394.84 207.34 387.545 209.276 380.265C210.112 377.124 212.165 372.799 211.594 369.545C210.977 366.024 209.497 362.279 208.352 358.93C201.022 364.107 193.538 369.017 186.086 373.959C179.405 378.39 172.612 382.331 165.884 386.716C162.437 388.962 158.88 390.48 155.282 392.315C152.359 393.807 153.494 398.367 153.536 401.413C153.684 412.168 153.677 422.96 154.258 433.7C154.469 437.612 154.196 442.103 156.413 445.36C159.249 449.523 161.878 453.767 164.464 458.15C165.433 459.792 169.503 468.681 171.02 468.486C172.011 468.36 172.923 464.76 173.419 463.907C174.487 462.067 176.049 460.484 177.47 459.002C183.609 452.604 190.422 448.097 197.501 443.42C204.695 438.669 212.056 434.247 219.384 429.742C221.04 428.724 222.823 427.99 224.468 426.949C225.118 426.539 226.407 425.886 226.816 425.152C227.428 424.053 227.221 421.008 227.348 419.694C227.609 417.01 228.078 414.222 228.103 411.518C228.128 408.847 226.698 406.552 225.662 404.223C221.114 393.998 216.695 383.747 212.738 373.211C209.618 385.445 206.342 397.621 203.281 409.873C201.683 416.27 199.757 422.563 197.882 428.862C196.924 432.08 195.961 435.295 195.005 438.513C194.26 441.019 193.873 444.688 191.712 446.213ZM257.035 215.655C254.624 215.685 252.438 215.287 250.08 214.721C249.215 214.515 248.455 214.427 247.578 214.34C246.584 214.241 245.68 213.636 244.809 213.518C244.15 213.429 242.999 213.739 242.37 213.976C240.912 214.525 240.958 214.248 240.897 216.15C240.802 219.089 240.73 222.029 240.587 224.965C240.021 236.524 238.929 247.97 237.432 259.416C237.128 261.73 236.28 264.765 236.746 267.063C237.167 269.134 238.76 271.347 239.812 273.085C241.977 276.658 247.075 278.424 250.661 279.437C254.442 280.506 258.368 280.9 261.961 281.853C262.957 282.117 264.099 281.651 265.16 281.916C266.142 282.161 266.904 282.766 267.811 283.204C270.032 284.276 272.514 284.473 274.809 285.3C279.358 286.941 284.229 286.842 288.783 288.418C289.947 288.82 290.953 289.835 292.073 290.182C293.097 290.5 294.152 290.126 295.224 290.303C297.495 290.679 299.612 291.551 300.136 294.29C301.525 293.055 301.718 293.38 301.478 291.469C301.324 290.245 300.717 288.753 300.384 287.573C299.537 284.562 298.685 281.553 297.839 278.543C296.164 272.585 294.499 266.623 292.955 260.621C291.574 255.253 290.318 249.843 289.22 244.392C288.662 241.621 288.196 238.837 287.717 236.051C287.578 235.242 287.716 233.957 286.993 233.419C286.337 232.931 284.806 234.682 284.113 235.246C279.273 239.184 268.173 250.832 262.122 243.961C258.863 240.261 259.054 233.756 259.408 228.976C259.625 226.038 260.084 223.137 260.598 220.249C260.726 219.528 261.511 217.212 261.223 216.699C260.913 216.146 257.683 215.817 257.035 215.655ZM427.086 279.946C428.375 280.108 429.662 280.271 430.95 280.434C430.832 279.264 430.938 277.506 430.544 276.417C429.999 274.912 428.665 274.744 427.198 274.12C424.877 273.134 422.51 272.277 420.214 271.215C415.232 268.912 410.273 266.576 405.288 264.273C403.103 263.263 400.536 261.61 398.164 262.435C395.605 263.325 393.08 265.138 390.689 266.465C387.981 267.968 385.274 269.475 382.568 270.982C381.299 271.688 380.029 272.395 378.76 273.101C376.766 274.211 376.501 274.324 376.344 276.858C375.543 289.824 375.602 303.294 375.951 316.277C376.13 322.903 375.93 329.564 376.353 336.179C376.386 336.687 376.352 339.558 376.635 339.949C377.034 340.501 379.845 340.687 380.516 340.826C383.134 341.363 385.771 341.542 388.416 341.808C387.793 326.726 385.504 308.898 392.398 295.103C399.322 281.244 414.124 278.242 427.086 279.946ZM306.702 131.579C307.478 129.592 308.815 127.915 309.958 126.172C310.576 125.23 311.645 124.103 312.04 123.001C312.603 121.432 312.601 121.768 311.759 120.394C310.964 119.095 310.98 118.998 309.75 118.765C308.715 118.57 307.612 118.902 306.554 118.689C305.485 118.473 302.546 117.461 303.22 115.55C303.191 115.634 304.891 114.692 305.023 114.528C305.45 114.006 305.586 112.891 305.797 112.259C306.476 110.234 306.714 108.923 305.957 106.766C304.827 103.546 300.357 102.593 297.575 103.677C296.183 104.218 295.39 105.365 294.765 106.807C294.368 107.722 294.276 109.045 293.762 109.843C292.988 111.043 292.94 110.909 291.334 110.697C289.29 110.428 287.614 109.545 285.677 108.93C283.567 108.26 282.195 109.624 280.351 110.723C277.023 112.71 273.809 113.399 270.081 113.715C265.93 114.066 262.082 112.942 257.972 112.652C259.038 118.17 261.796 122.651 264 127.648C264.388 128.527 265.014 129.425 265.029 130.442C265.044 131.399 263.81 132.702 263.949 133.495C264.246 135.186 267.558 136.539 268.813 137.015C272.362 138.36 276.403 140.992 280.309 139.934C282.451 139.355 283.603 135.556 285.619 135.277C288.323 134.901 286.3 138.812 285.798 140.157C289.635 140.813 294.499 140.257 298.172 138.795C300.013 138.063 301.573 136.97 303.253 135.886C305.346 134.537 305.78 134.166 306.702 131.579ZM239.547 213.711C232.706 213.839 225.764 212.732 218.907 213.749C217.319 213.984 215.751 214.363 214.19 214.766C213.068 215.055 209.505 215.3 208.757 216.237C208.075 217.092 208.07 221.027 207.93 222.136C207.617 224.606 207.7 225.459 209.102 227.368C213.715 233.652 218.519 239.748 223.064 246.101C227.43 252.204 231.014 259.023 235.427 265.039C237.784 257.332 237.925 248.083 238.572 240.002C238.917 235.692 239.231 231.38 239.526 227.067C239.806 222.959 240.761 217.628 239.547 213.711ZM150.995 294.937C151.786 294.937 153.048 295.216 153.817 294.937C154.875 295.315 155.228 294.87 154.878 293.601C154.895 293.157 154.912 292.712 154.929 292.268C155.039 289.405 155.161 286.543 155.279 283.681C155.387 281.064 155.493 278.446 155.584 275.828C155.648 274.041 156.451 269.611 155.808 267.997C155.376 266.912 154.354 267.158 153.109 267C151.925 266.849 150.738 266.71 149.56 266.504C148.066 266.242 146.41 265.641 144.889 266.017C143.362 266.395 142.251 267.98 141.052 268.988C139.155 270.581 137.217 272.116 135.304 273.685C131.827 276.538 128.385 279.442 124.937 282.339C123.513 283.534 123.24 283.119 123.934 284.838C124.364 285.899 125.34 287.101 125.935 288.06C127.119 289.97 128.298 292.866 129.816 294.416C132.026 296.671 138.157 295.239 141.093 295.223C144.44 295.204 147.667 295.262 150.995 294.937ZM159.659 294.75C162.562 294.431 165.494 294.569 168.379 294.131C171.515 293.653 174.629 292.947 177.759 292.418C180.88 291.891 190.374 289.759 189.437 284.527C188.447 278.995 181.179 275.682 177.157 273.823C170.876 270.919 164.319 269.364 157.712 267.722C156.883 272.68 157.002 278.003 156.851 283.028C156.769 285.757 156.697 288.489 156.698 291.22C156.698 291.878 156.497 293.242 156.736 293.853C157.297 295.291 157.95 294.75 159.659 294.75ZM150.113 297.127H131.586C134.328 303.502 136.92 309.997 139.876 316.253C142.82 322.484 146.61 328.356 149.95 334.337C150.796 333.302 152.145 332.181 152.72 330.95C153.357 329.588 153.339 327.585 153.444 326.009C153.714 321.918 153.838 317.791 153.929 313.691C154.01 310.1 154.15 306.533 154.396 302.951C154.449 302.165 155.221 298.084 154.779 297.414C154.386 296.817 150.924 297.133 150.113 297.127ZM226.414 171.939C229.539 171.938 232.668 171.894 235.793 171.953C238.629 172.007 242.324 171.452 244.922 173.092C250.214 176.434 239.635 185.015 237.489 187.175C240.958 188.587 246.372 185.784 249.768 184.5C253.967 182.912 258.249 181.846 262.532 180.602C263.602 180.292 268.196 179.683 268.776 178.762C269.352 177.849 268.063 172.337 267.933 171.174C267.812 170.081 267.914 168.377 267.509 167.349C267.757 166.114 267.371 165.681 266.351 166.052C265.998 166.051 265.647 166.049 265.294 166.047C262.688 166.071 260.079 166.207 257.475 166.304C248.524 166.638 239.79 167.085 230.915 168.654C226.79 169.384 222.627 170.281 218.523 171.177C215.068 171.931 215.649 172.563 218.876 172.572C221.4 172.58 223.902 172.159 226.414 171.939ZM483.188 97.9923C483.72 97.3062 484.252 96.6195 484.784 95.9328C483.488 95.5172 482.192 95.1008 480.896 94.6852C479.518 94.2434 478.776 94.3445 479.389 92.615C480.157 90.4484 483.662 90.2001 485.347 90.1184C491.149 89.8367 497.242 91.9102 502.753 93.7368C505.442 94.6283 507.55 96.0078 509.826 97.8424C510.819 98.6435 511.966 99.3959 512.835 100.358C513.738 101.358 514.114 102.639 514.997 103.642C516.445 105.286 518.299 106.104 519.009 108.477C519.824 111.201 518.851 114.318 517.645 116.693C516.421 119.103 514.603 120.926 513.127 123.116C511.955 124.853 509.508 129.601 513.332 129.051C515.354 128.76 517.977 124.885 519.432 123.342C521.518 121.129 523.57 118.864 525.779 116.803C527.738 114.975 529.995 113.101 532.615 112.78C535.376 112.441 536.755 114.426 538.101 116.84C539.37 119.117 539.574 121.34 540.466 123.671C540.897 124.794 541.445 125.421 541.698 126.646C542.087 128.53 542.128 130.585 542.326 132.506C542.638 135.523 542.932 137.895 542.412 140.851C541.924 143.617 541.792 146.555 541.381 149.37C540.916 152.557 540.53 155.759 540.072 158.948C539.684 161.649 538.208 165.496 539.656 168.008C543.134 174.045 547.307 165.158 548.406 161.839C550.337 156.005 551.32 149.628 553.025 143.674C553.938 140.49 554.734 137.276 555.257 133.98C555.69 131.253 555.477 127.932 556.807 125.504C557.841 123.618 559.679 122.185 561.697 122.761C564.222 123.482 565.192 127.582 565.935 130.075C567.896 136.649 567.174 142.57 566.376 149.274C566.007 152.378 565.654 155.487 565.019 158.54C564.591 160.6 562.817 164.768 565.454 165.888C569.193 167.477 573.155 155.428 574.221 152.707C577.01 145.581 578.078 138.513 579.228 130.878C579.492 129.122 579.694 127.329 580.089 125.604C580.433 124.102 581.46 122.584 581.553 121.082C581.645 119.578 580.759 118.53 581.667 117.054C582.422 115.826 583.787 115.751 585.021 115.741C587.917 115.715 590.688 117.144 593.383 118.181C595.889 119.145 599.601 121.262 602.306 120.58C593.821 110.904 585.359 101.338 575.241 93.8017C570.542 90.3018 565.84 86.9385 560.762 84.0845C555.618 81.1937 549.723 79.2413 544.214 77.4924C541.217 76.5406 538.238 75.4624 535.279 74.3707C532.645 73.3989 529.994 73.2148 527.415 72.1124C521.811 69.7183 515.55 68.7906 509.748 67.0932C507.186 66.3443 504.596 65.7017 502.028 65.0076C499.329 64.2781 495.538 63.011 492.788 63.1342C490.44 63.2393 489.647 66.2626 488.518 68.3656C486.877 71.4184 485.479 74.5903 484.189 77.8465C481.547 84.5183 478.758 91.4109 476.869 98.3812C475.831 102.208 474.807 106.04 473.787 109.873C472.905 113.191 470.699 117.978 471.285 121.384C475.631 113.861 479.677 106.049 483.188 97.9923ZM280.897 165.917C278.591 166.035 276.286 166.152 273.981 166.27C276.279 174.757 275.959 183.794 275.959 192.591C286.7 191.169 297.528 190.926 308.333 191.025C306.348 186.722 307.118 181.141 307.683 176.534C308.015 173.837 308.199 171.24 308.151 168.519C308.106 165.967 308.761 163.821 306.354 163.032C304.444 162.406 303.237 163.449 301.418 163.925C299.239 164.494 296.866 164.563 294.648 164.873C290.031 165.518 285.579 165.896 280.897 165.917ZM219 182.446C225.923 180.288 233.279 181.083 240.236 179.444C238.654 177.821 235.672 178.782 233.571 178.918C231.182 179.07 228.794 179.182 226.405 179.312C224.075 179.44 217.612 179.242 216.771 182.573C217.514 182.531 218.257 182.488 219 182.446ZM472.296 62.1824C463.237 63.0753 453.751 62.9368 444.758 64.7125C434.458 66.7458 423.722 68.0216 413.736 71.6051C403.94 75.121 393.95 77.5821 384.294 81.7105C374.906 85.7237 365.864 89.9933 357.024 95.3612C352.697 97.9883 348.487 100.773 344.362 103.791C340.335 106.736 335.923 109.151 332.021 112.274C328.548 115.053 325.551 117.603 322.522 121.008C319.285 124.649 316.135 128.389 312.894 132.024C310.189 135.056 311.902 142.471 312.073 146.507C312.311 152.103 312.721 157.619 313.332 163.178C313.913 168.475 314.511 174.168 313.743 179.454C313.421 181.676 312.308 185.514 312.839 187.732C313.264 189.509 316.085 190.811 317.524 191.39C319.284 192.098 321.081 191.8 322.887 192.701C324.904 193.708 326.604 194.964 328.746 195.493C331.386 196.146 334.354 196.695 337.067 196.715C339.576 196.733 342.093 197.646 344.595 198.208C348.665 199.124 352.637 199.409 352.383 204.922C352.091 211.283 349.844 216.741 348.506 222.78C350.315 222.78 351.577 222.91 353.233 222.189C355.167 221.348 357.23 221.125 359.262 220.762C363.752 219.959 368.13 219.702 372.649 219.19C380.929 218.252 389.351 218.364 397.637 218.464C401.832 218.513 406.383 218.877 410.52 219.611C414.764 220.364 419.16 220.834 423.273 222.278C426.743 223.496 430.326 224.326 433.866 225.402C435.462 225.887 437.372 226.281 438.88 226.823C441.064 227.609 442.231 229.286 444.753 229.248C444.043 224 442.376 219.132 441.371 213.928C440.321 208.493 438.226 203.685 435.914 198.558C434.883 196.271 434.12 193.844 433.125 191.538C432.02 188.972 430.465 186.847 429.13 184.448C426.398 179.541 423.483 174.821 420.799 169.88C418.456 165.565 415.78 161.43 413.215 157.265C410.396 152.686 406.478 149.231 403.278 145.03C401.927 143.256 400.642 141.607 399.128 139.979C397.735 138.479 395.758 135.161 393.624 135.006C392.398 134.916 390.274 135.691 389.103 136.107C386.938 136.877 384.641 137.379 382.405 138.057C379.959 138.799 377.554 139.765 375.103 140.471C374.122 140.752 372.957 140.618 372.027 140.938C371.055 141.272 370.279 142.009 369.215 142.347C363.969 144.019 358.754 145.917 353.468 147.44C348.027 149.007 342.502 150.342 337.229 152.562C336.223 152.985 335.104 153.987 334.331 153.329C333.755 152.838 333.384 151.45 333.536 150.64C334.041 147.944 337.88 146.97 339.728 145.888C344.681 142.987 349.602 140.942 354.924 138.972C357.547 138.003 360.159 136.968 362.818 136.131C365.04 135.431 367.353 134.248 369.625 133.89C371.646 133.571 373.081 132.677 375.087 131.885C378.043 130.719 381.082 129.761 384.085 128.764C389.218 127.06 394.659 126.344 399.911 125.201C412.078 122.554 424.71 121.229 437.126 121.393C443.386 121.476 449.933 121.271 456.119 122.427C457.611 122.706 460.747 122.652 461.775 124.156C462.328 124.963 462.029 126.165 462.17 127.039C462.41 128.516 463.127 129.204 463.748 130.549C465.069 123.27 466.586 116.145 468.292 108.972C469.833 102.48 471.26 95.8706 473.321 89.4699C475.501 82.6977 478.144 75.5173 481.402 69.3194C482.073 68.0437 483.745 66.017 483.889 64.59C484.038 63.1175 482.201 61.977 480.939 61.813C478.108 61.4455 475.076 62.0747 472.296 62.1824ZM533.148 166.198C534.07 156.1 536.764 145.537 535.259 135.399C534.622 131.107 534.125 127.011 532.214 123.137C531.248 121.177 530.861 119.738 529.016 120.894C527.149 122.063 525.43 124.951 523.882 126.625C521.037 129.702 518.058 132.87 514.651 135.156C511.967 136.955 506.637 138.66 504.62 134.768C502.698 131.059 505.262 125.882 507.102 122.822C509.208 119.321 513.198 116.078 510.959 111.758C509.995 109.899 508.609 109.412 507.152 108.191C505.89 107.135 504.833 105.767 503.571 104.692C499.916 101.576 495.906 100.242 491.685 98.4615C489.736 97.6389 489.48 96.8652 488.354 98.7453C487.131 100.787 486.461 103.649 485.577 105.908C483.807 110.432 481.918 114.718 479.635 118.936C477.331 123.193 475.289 127.64 473.112 131.981C472.29 133.619 471.517 135.283 470.546 136.821C470.017 137.657 469.362 138.403 468.933 139.319C468.297 140.673 468.58 141.907 468.184 143.255C466.477 149.071 463.986 140.952 463.51 139.054C462.969 136.894 461.664 135.211 460.818 133.197C460.119 131.534 459.642 129.062 457.955 128.279C456.573 127.638 454.791 128.518 453.381 128.604C450.789 128.762 448.179 128.526 445.576 128.708C443.142 128.878 440.713 129.14 438.28 129.308C435.845 129.476 433.412 129.013 431.009 129.301C426.696 129.818 422.286 129.735 417.983 130.451C412.933 131.29 407.935 132.186 402.87 132.885C404.047 135.384 406.486 136.469 408.415 138.252C410.139 139.847 411.503 141.687 413.24 143.203C415.001 144.743 416.048 147.02 417.506 148.87C418.935 150.682 420.257 152.201 421.509 154.228C427.55 164.018 433.781 173.446 438.763 184.026C441.285 189.382 443.694 195.111 445.417 200.856C447.265 207.019 448.172 213.628 449.27 220C449.817 223.176 450.103 225.856 449.504 229.05C449.346 229.81 449.183 230.569 449.013 231.326C448.487 232.233 448.682 232.82 449.597 233.09C450.132 233.966 450.862 234.295 450.909 235.493C450.944 236.403 450.493 237.458 449.796 237.971C448.449 238.962 448.449 237.624 447.06 237.921C446.539 238.237 446.018 238.553 445.498 238.869C445.224 238.399 444.941 237.935 444.65 237.477C443.765 236.531 443.061 236.617 441.904 236.387C442.492 243.995 441.554 250.788 440.063 258.21C439.346 261.778 438.117 265.272 437.497 268.846C436.806 272.84 438.318 274.66 440.657 277.323C440.063 277.671 439.023 278.05 438.533 278.57C437.754 279.399 437.953 279.501 437.954 280.798C437.955 283.175 437.549 285.517 437.217 287.853C436.602 292.18 436.04 296.658 434.714 300.801C432.305 308.326 428.411 316.141 424.445 322.769C422.225 326.479 419.999 330.693 417.217 333.894C414.425 337.105 411.657 340.346 408.871 343.567C403.388 349.908 397.396 354.289 390.827 359.036C388.226 360.917 385.486 362.977 383.249 365.319C380.975 367.697 377.951 369.363 375.234 371.091C374.021 371.862 373.159 372.97 371.85 373.602C370.62 374.196 369.761 374.39 368.73 375.169C366.171 377.102 363.407 378.755 360.589 380.212C357.153 381.99 353.771 384.058 350.242 385.576C348.634 386.267 347.121 387.021 345.563 387.829C343.878 388.704 342.06 389.278 340.331 390.211C338.87 390.998 337.39 391.456 335.903 392.1C334.689 392.626 333.736 393.478 332.497 394.028C329.925 395.169 327.584 395.783 325.085 397.129C321.765 398.916 317.83 399.75 314.333 401.037C310.428 402.474 306.377 403.903 302.37 404.922C300.665 405.356 299.212 405.923 297.566 406.579C296.493 407.007 295.262 407.241 294.074 407.648C290.789 408.773 287.506 409.857 284.204 410.814C277.753 412.683 271.162 414.927 264.906 417.465C261.626 418.795 258.298 420.396 255.151 422.09C251.594 424.004 247.76 425.109 244.19 427.005C237.292 430.665 230.418 434.434 223.6 438.277C220.02 440.296 216.49 442.375 212.995 444.571C211.726 445.367 210.339 445.696 209.079 446.477C207.431 447.499 206.079 448.999 204.391 450.011C197.885 453.915 191.244 457.592 185.269 462.531C182.141 465.116 178.781 467.763 176.079 470.91C175.187 471.948 173.641 473.556 173.48 475.063C173.242 477.292 173.465 475.241 174.152 476.616C175.103 476.745 175.318 477.156 174.799 477.847C174.56 478.171 174.253 478.336 173.879 478.343C172.678 478.616 170.43 477.186 169.464 476.587C167.79 475.551 166.902 474.241 165.827 472.502C163.493 468.728 161.215 464.921 158.811 461.2C156.649 457.854 154.533 454.17 152.073 451.097C150.405 449.014 150.279 449.924 148.424 451.098C147.044 451.972 145.44 452.345 144.01 453.167C138.559 456.304 132.567 458.621 126.976 460.807C125.703 461.305 125.024 462.095 123.905 462.782C122.48 463.658 120.675 464.087 119.151 464.709C114.952 466.424 110.775 468.204 106.606 470.009C103.388 471.403 100.295 472.501 97.7751 475.073C96.7724 476.097 95.5588 476.831 94.5233 477.867C93.3174 479.071 91.6867 481.03 90.1686 481.712L89.244 482.523C88.6184 482.034 87.9922 481.546 87.3648 481.06C86.7428 480.576 86.1202 480.094 85.4994 479.609C83.9402 478.391 82.3923 477.156 80.8427 475.923C77.3281 473.125 73.7909 470.354 70.5217 467.195C64.7145 461.585 58.6885 456.276 52.6162 451.022C46.243 445.508 40.0294 439.737 33.4376 434.554C27.463 429.856 20.9444 425.888 15.1515 420.93C12.2357 418.434 9.32699 415.922 6.34981 413.504C6.18775 413.373 3.76527 411.703 3.74263 411.518C3.69974 411.176 4.49691 410.285 4.73225 409.999C5.84638 408.638 7.08085 407.427 8.19081 406.051C13.3641 399.643 20.1186 399.866 27.258 399.564C30.4955 399.426 34.0066 401.104 37.0815 402.246C40.8415 403.642 44.4687 405.691 48.1007 407.461C55.5856 411.108 63.3109 414.224 70.8715 417.602C73.8445 418.93 76.8062 419.578 79.8286 420.491C82.8952 421.418 86.0541 420.535 89.3339 420.601C91.0361 420.635 92.6454 420.747 94.3595 420.638C95.3771 420.574 96.5496 420.357 97.5547 420.377C98.3691 420.393 99.2146 420.77 99.9641 420.675C103.245 420.257 106.711 419.671 110.095 419.192C113.455 418.716 116.922 418.48 120.237 417.735C121.907 417.36 123.554 416.83 125.16 416.194C126.554 415.642 129.089 415.015 130.233 413.896C131.256 412.896 130.809 412.882 130.238 411.25C130.012 410.605 129.779 409.626 129.444 409.004C128.539 407.324 127.664 406.796 128.191 404.694C129.119 400.989 132.281 398.623 134.987 396.798C141.085 392.688 146.661 387.417 153.081 383.93C166.31 376.747 178.367 367.416 191.268 359.528C205.449 350.857 218.864 340.682 233.243 332.377C246.626 324.647 259.949 316.871 273.444 309.384C280.033 305.73 287.486 302.385 293.465 297.594C290.152 297.132 286.83 296.535 283.506 296.205C281.964 296.052 280.404 296.193 278.871 295.918C277.156 295.61 275.535 294.831 273.824 294.507C270.881 293.949 268.235 292.816 265.29 292.398C262.133 291.95 259.04 290.907 255.867 290.615C249.231 290.004 243.241 287.255 237.423 283.79C235.983 282.932 234.8 283.422 233.42 282.839C232.66 282.518 231.853 281.236 230.999 280.547C228.647 278.65 226.629 276.41 224.394 274.338C219.695 286.184 210.47 294.24 201.665 302.187C197.206 306.21 192.366 309.622 187.86 313.57C184.368 316.632 181.196 319.372 177.467 321.806C173.887 324.142 170.524 327.297 167.111 330.104C164.797 332.006 162.086 333.442 159.626 335.094C157.615 336.443 153.691 338.456 153.143 340.903C152.694 342.903 153.569 345.283 150.853 344.364C148.42 343.541 146.656 340.507 145.24 338.37C141.576 332.84 138.157 327.123 134.755 321.389C132.928 325.396 129.776 328.281 126.863 331.252C125.093 333.057 123.255 334.731 121.344 336.343C120.417 337.124 119.479 337.891 118.55 338.67C118.184 338.978 117.355 339.452 117.118 339.885C116.564 340.9 116.9 340.44 116.987 341.667C117.121 343.589 117.692 345.101 116.724 346.942C115.815 348.671 113.832 349.409 112.443 350.59C109.138 353.4 105.662 356.387 101.995 358.582C101.162 359.08 100.375 359.512 99.6001 360.121C98.306 361.138 98.5425 361.507 97.2383 360.532C95.1989 359.007 93.4372 356.475 91.5968 354.636C87.7408 350.782 83.8419 346.977 79.893 343.244C72.3675 336.129 64.6198 329.368 57.1877 322.126C50.1252 315.244 42.5538 309.32 35.2625 302.778C33.2624 300.983 31.2868 299.152 29.3129 297.321C27.5553 295.691 24.7032 293.894 23.4032 291.809C21.5151 288.779 28.9006 284.64 31.1289 284.023C34.9711 282.961 39.9395 283.569 43.7877 284.44C47.8272 285.353 51.9405 288.409 55.7125 290.313C59.9643 292.458 64.2945 294.313 68.5777 296.338C70.4878 297.241 72.5129 297.962 74.286 299.179C76.1675 300.47 77.847 301.942 79.8477 303.025C82.1534 304.271 84.5491 305.434 86.974 306.356C88.0726 306.774 89.2553 307.194 90.4099 307.362C92.0448 307.601 91.8232 306.755 93.181 306.283C94.335 305.881 94.6091 306.942 95.647 307.237C96.6241 307.516 97.3545 307.234 98.2005 306.644C100.087 305.328 101.766 303.514 103.653 302.145C105.403 300.874 107.333 299.687 108.974 298.248C109.705 297.606 110.246 296.728 110.967 296.076C112.122 295.032 112.581 295.447 113.929 294.728C115.032 294.139 116.033 293.044 117.082 292.319C117.733 291.868 119.312 291.299 119.733 290.571C120.836 288.657 118.953 287.328 117.266 287.892C117.013 286.239 115.716 282.316 116.276 280.766C116.772 279.396 118.073 279.652 119.168 278.926C123.281 276.198 126.317 271.241 130.165 268.036C133.793 265.014 136.993 261.406 140.587 258.329C143.666 255.692 147.03 253.118 149.833 250.275C153.148 246.914 157.391 244.299 160.994 241.298C164.717 238.199 168.176 234.751 171.859 231.616C175.402 228.601 178.882 225.451 182.523 222.581C185.795 220 189.225 217.644 192.429 215.029C194.184 213.596 196.103 212.338 198.107 211.398C200.099 210.462 201.842 209.365 203.787 208.358C207.653 206.356 212.688 204.972 216.892 204.398C221.514 203.768 226.155 203.202 230.821 203.198C233.307 203.196 235.721 203.727 238.192 203.896C240.462 204.05 242.916 204.695 245.17 204.61C246.191 204.572 247.078 204.087 248.067 204.243C248.892 204.374 249.61 204.933 250.495 205.031C252.466 205.249 254.449 205.032 256.442 205.318C261.022 205.975 265.608 206.912 270.197 207.435C275.087 207.991 279.934 208.096 284.798 209.033C289.552 209.948 294.335 210.896 299.06 211.954C309.104 214.203 319.252 216.399 329.136 219.739C331.447 220.519 333.771 221.261 335.992 222.332C337.07 222.85 338.105 223.479 339.23 223.868C340.839 224.423 341.156 224.634 341.986 223.117C343.413 220.505 344.2 217.051 345.236 214.209C346.26 211.398 347.504 208.564 348.098 205.627C346.371 205.32 344.192 205.917 342.41 205.985C340.231 206.07 338.076 206.017 335.9 206.002C331.513 205.973 328.083 204.517 323.932 202.989C320.433 201.7 315.775 200.962 313.107 198.011C311.676 196.43 311.2 196.151 309.049 196.435C306.879 196.721 304.736 197.213 302.545 197.295C294.289 197.603 286.07 199.221 277.776 199.541C275.532 199.628 269.92 200.822 270.288 196.547C270.364 195.66 270.969 194.89 271.087 193.977C271.214 192.997 270.996 192.003 270.859 191.046C270.534 188.782 270.195 186.519 269.872 184.254C262.309 186.981 254.651 189.19 246.943 191.35C243.748 192.246 238.613 194.305 235.311 193.176C232.118 192.084 233.967 187.031 234.961 184.612C228.618 186.239 221.852 188.898 215.384 189.509C213.416 189.695 211.5 190.184 211.042 187.512C210.677 185.382 212.047 182.778 212.745 180.907C207.781 180.409 202.64 180.456 203.574 173.308C204.431 166.749 209.28 165.444 214.444 164.245C220.817 162.766 227.326 162.272 233.741 161.075C239.323 160.033 245.412 158.871 251.112 159.397C254.13 159.675 257.165 159.738 260.182 160.052C261.605 160.2 262.974 160.448 264.351 160.884C265.622 161.286 267.399 162.531 268.702 162.553C270.668 162.588 273.038 159.602 275.152 158.912C277.772 158.056 280.594 157.901 283.3 157.691C286.367 157.455 289.439 157.323 292.504 157.044C293.203 156.981 295.844 157.175 296.396 156.715C297.199 156.045 296.664 152.609 296.608 151.197C296.556 149.891 296.78 147.446 295.974 146.934C295.218 146.453 293.012 147.112 292.267 147.246C289.18 147.802 286.247 147.738 283.172 147.597C281.751 147.532 280.387 147.957 278.98 147.747C277.471 147.523 275.952 146.953 274.449 146.636C271.193 145.948 268.226 145.093 265.421 143.043C262.958 141.245 260.043 140.027 258.667 136.878C257.659 134.571 257.249 130.12 260.213 129.464C258.194 126.193 256.801 122.519 255.731 118.739C255.537 118.054 255.408 117.022 255.118 116.424C254.094 114.31 255.044 116.185 253.582 115.34C252.138 114.505 251.096 113.844 249.967 112.393C248.167 110.078 247.409 107.228 247.182 104.212C246.873 100.115 246.296 95.4951 246.829 91.4189C247.751 84.3583 252.344 79.0533 257.012 74.783C259.546 72.4645 262.882 71.6011 265.853 70.1942C268.722 68.8355 271.927 67.4111 274.949 67.0925C277.677 66.8047 280.337 65.8041 283.068 65.4005C286.822 64.845 290.579 65.0525 294.351 64.8838C296.087 64.8062 297.819 64.5311 299.548 64.3216C300.524 64.2031 302.174 64.3296 303.068 63.8952C304.53 63.1831 303.74 64.6783 304.263 62.5004C305.257 58.3573 306.068 54.4719 307.574 50.446C308.976 46.6951 310.68 43.1089 312.931 39.9022C315.043 36.8943 317.781 34.6943 320.268 32.1248C322.112 30.2212 324.202 28.5017 326.305 26.9623C327.507 26.0822 328.847 25.6063 330.021 24.8292C331.479 23.8654 332.766 23.1345 334.407 22.5441C337.928 21.2778 341.423 19.9331 345.162 19.9994C349.194 20.0703 353.236 19.0162 357.161 20.3528C364.449 22.8353 368.021 31.7091 367.898 39.8581C370.391 39.1593 372.57 37.814 375.211 37.6988C377.643 37.5931 380.532 37.83 382.921 38.3374C387.558 39.3219 392.327 42.2174 395.091 46.6055C397.728 50.7907 398.123 56.3473 396.502 61.0955C395.726 63.3685 394.496 65.3905 393.185 67.3108C392.225 68.719 390.081 70.2778 389.98 72.1646C407.926 66.0705 425.945 61.7748 444.509 58.9945C453.92 57.5856 463.346 58.291 472.766 57.4858C476.79 57.1418 481.163 57.623 485.323 57.6411C487.079 57.6491 488.446 57.3747 489.719 56.0977C491.009 54.8059 492.039 53.2237 493.541 55.0883C493.925 55.5642 494.005 56.7154 494.521 57.0735C495.147 57.5072 496.966 57.2094 497.714 57.2609C500.33 57.4403 502.883 57.939 505.452 58.5132C510.165 59.5674 514.847 60.633 519.504 61.9709C528.37 64.519 537.119 66.9835 545.858 70.0081C554.775 73.0943 563.785 76.9021 572.007 81.8979C575.989 84.3175 579.967 87.3381 583.628 90.3313C585.33 91.7235 586.856 93.2294 588.336 94.9081C589.919 96.7025 591.854 97.9133 593.422 99.7211C596.83 103.653 600.227 107.825 603.319 112.085C604.933 114.309 606.417 116.655 607.853 119.026C608.866 120.689 611.523 123.734 610.909 125.883C610.587 127.03 609.443 127.833 608.401 127.551C608.049 127.458 607.763 126.949 607.465 126.901C606.453 126.74 607.37 126.341 606.196 126.877C603.855 127.944 603.11 130.082 600.137 129.595C595.087 128.768 590.335 126.088 585.741 123.751C584.429 129.387 584.243 135.229 583.094 140.932C581.974 146.496 580.107 151.803 577.851 156.906C575.873 161.384 573.334 166.156 569.832 169.356C567.161 171.798 560.567 174.831 558.604 169.633C557.771 167.425 559.011 163.994 559.362 161.721C559.833 158.672 560.352 155.614 560.636 152.534C560.866 150.031 560.982 147.514 561.197 145.009C561.382 142.853 561.894 138.226 560.815 136.323C560.165 135.176 560.109 136.301 559.73 137.447C559.272 138.835 558.89 140.213 558.555 141.643C557.841 144.683 557.198 147.743 556.523 150.793C555.317 156.242 553.989 161.573 551.476 166.473C549.244 170.824 546.103 175.598 541.329 176.311C539.095 176.644 536.181 175.496 534.475 173.805C532.561 171.907 533.133 168.777 533.148 166.198Z" fill="black"/>
<path fill-rule="evenodd" clip-rule="evenodd" d="M424.149 388.733C426.772 388.151 428.98 385.799 431.123 384.032C433.855 381.779 436.447 379.323 439.1 376.956C444.1 372.495 448.636 367.602 452.95 362.281C461.461 351.783 467.868 338.27 470.781 324.464C472.254 317.479 474.077 309.294 473.24 302.074C472.949 299.566 472.506 299.107 470.317 298.821C469.329 298.693 466.82 298.374 465.93 298.81C463.623 299.943 462.378 304.761 461.694 307.183C459.673 314.332 458.483 321.737 456.657 328.945C454.868 336.011 451.983 343.18 449.13 349.787C442.782 364.488 433.96 376.786 424.149 388.733ZM476.187 307.569C474.619 327.588 469.671 346.661 458.578 362.782C453.305 370.445 447.104 377.112 440.383 383.168C433.443 389.422 426.356 395.311 418.481 399.975C416.386 401.216 414.287 402.453 412.166 403.637C410.99 404.294 408.021 406.711 406.664 406.329C405.578 406.022 405.294 405.078 405.124 403.849C404.744 401.091 406.339 399.714 407.952 397.943C414.431 390.827 420.931 383.685 426.989 376.115C438.953 361.165 447.94 343.263 452.936 323.946C454.475 317.999 455.848 311.985 457.509 306.079C458.521 302.482 459.956 296.078 463.318 294.284C465.121 293.322 467.223 294.258 469.118 293.682C470.897 293.141 472.075 292.038 473.591 293.888C476.251 297.134 476.369 303.501 476.187 307.569Z" fill="black"/>
<path fill-rule="evenodd" clip-rule="evenodd" d="M2.21048 423.075C0.882454 423.604 0.827045 424.128 0.218743 422.593C-0.0874954 421.819 -0.00468021 420.76 0.067411 419.956C0.240191 418.031 1.14222 416.252 1.88339 414.546C8.85892 421.01 16.102 426.836 23.5816 432.547C31.5807 438.655 39.2182 445.445 46.7836 452.211C53.5583 458.27 60.4147 464.15 67.1186 470.285C70.3519 473.244 74.0381 475.537 77.1118 478.587C79.5957 481.051 83.715 482.155 85.8324 485.054C82.4769 487.307 77.9971 489.121 74.2788 487.172C70.1768 485.022 67.0304 482.22 63.3799 479.306C61.499 477.805 59.5431 476.442 57.6324 474.99C55.9528 473.712 54.7666 471.847 53.0662 470.649C49.4926 468.131 45.8267 465.356 42.4361 462.48C38.9531 459.526 35.103 457.176 31.7428 454.037C28.2979 450.818 24.4419 448.686 20.8451 445.755C13.2225 439.546 6.5103 432.562 2.21048 423.075Z" fill="black"/>
<path fill-rule="evenodd" clip-rule="evenodd" d="M207.868 93.3519C207.774 93.9235 207.679 94.4951 207.584 95.0674C207.642 95.0821 212.203 85.1829 212.959 83.9875C215.522 79.9348 218.857 76.5628 222.073 73.178C228.884 66.0083 236.855 60.2214 243.53 52.9238C245.726 50.5229 249.661 46.8852 248.792 42.8258C247.929 38.7911 240.641 39.6111 238.145 40.7783C234.233 42.6089 231.055 46.4374 228.139 49.7733C224.959 53.4124 221.753 57.0106 219.057 61.129C216.151 65.5699 213.392 70.3796 211.611 75.5334C209.616 81.3069 208.837 87.2819 207.868 93.3519ZM209.366 111.065C206.271 112.137 210.151 112.861 208.939 114.719C207.609 116.757 205.374 110.479 205.04 109.294C203.069 102.291 203.95 93.783 205.026 86.6728C205.57 83.0859 205.921 79.4402 206.654 75.8921C207.368 72.4324 208.925 69.1447 210.364 65.9976C213.243 59.7006 217.056 53.8341 221.383 48.6997C225.724 43.5487 230.562 38.3949 236.289 35.2237C241.021 32.6046 248.522 34.4218 250.738 40.1425C253.001 45.9883 249.94 52.3562 246.32 56.4665C241.597 61.8271 236.452 67.1515 231.148 71.7738C228.422 74.1499 226.137 77.0233 223.489 79.5024C220.67 82.1415 218.232 84.796 216.147 88.2089C214.129 91.516 212.051 94.8204 210.739 98.5746C209.303 102.686 209.366 106.716 209.366 111.065Z" fill="black"/>
<path fill-rule="evenodd" clip-rule="evenodd" d="M85.5625 363.159C78.4499 358.014 71.3135 353.497 65.1196 346.935C59.0042 340.457 53.6611 333.151 46.8547 327.53C43.4587 324.726 39.9537 322.094 36.6178 319.197C33.4518 316.449 29.8126 314.094 26.951 310.959C23.1368 306.778 15.9956 299.011 20.8686 292.778C26.9171 300.859 35.2159 307.229 42.7819 313.364C50.7596 319.833 58.0819 327.38 65.6493 334.428C72.9388 341.217 80.2039 348.068 87.3171 355.037C89.1849 356.868 90.9866 358.791 92.8765 360.592C93.1076 360.812 95.0666 362.206 95.0666 362.577C95.0672 363.467 93.5485 364.023 93.0075 364.271C92.1538 364.662 89.8445 365.633 88.8763 365.305C88.3687 365.132 88.3598 364.668 87.9939 364.392C87.7836 363.946 87.5382 363.526 87.2593 363.131C86.6933 363.141 86.1279 363.151 85.5625 363.159Z" fill="black"/>
<path fill-rule="evenodd" clip-rule="evenodd" d="M504.276 273.452C499.205 273.306 491.487 273.289 491.772 281.067C491.912 284.918 493.771 287.747 495.298 291.041C496.901 294.503 498.09 298.079 498.561 301.96C500.464 317.667 495.357 333.011 490.738 347.532C500.659 338.537 507.823 326.02 511.585 312.301C513.408 305.648 514.118 297.097 513.529 290.17C513.234 286.703 512.096 283.596 510.726 280.507C510.037 278.956 509.349 277.184 508.252 275.929C507.153 274.67 505.629 274.251 504.276 273.452ZM486.589 356.528C483.313 350.477 488.47 341.567 490.156 335.666C492.173 328.611 494.033 321.266 494.894 313.908C495.797 306.201 494.631 300.209 491.452 293.401C488.608 287.315 486.92 279.21 490.081 272.77C491.355 270.178 493.234 269.86 495.469 268.826C498.212 267.557 498.968 265.412 502.334 265.752C508.34 266.357 511.119 272.757 513.353 278.209C518.563 290.919 517.147 307.322 512.704 320.086C510.147 327.429 507.23 335.055 502.889 341.308C500.76 344.374 498.257 347.032 495.661 349.59C492.852 352.357 490.335 355.691 486.589 356.528Z" fill="black"/>
<path fill-rule="evenodd" clip-rule="evenodd" d="M143.604 135.854C135.686 137.642 128.46 141.651 127.192 151.648C126.039 160.733 131.548 169.138 138.312 173.391C145.629 177.992 154.796 178.756 162.086 173.658C169.761 168.29 171.502 157.532 166.831 149.093C161.619 139.675 152.887 136.895 143.604 135.854ZM148.693 131.495C158.122 133.047 166.875 140.586 170.051 150.739C173.325 161.205 170.317 172.712 161.648 178.447C144.128 190.037 120.713 170.721 124.942 148.52C126.015 142.883 129.064 138.518 133.206 135.217C137.779 131.573 143.308 131.474 148.693 131.495Z" fill="black"/>
<path fill-rule="evenodd" clip-rule="evenodd" d="M483.935 25.2099C472.574 19.439 461.212 13.6681 449.851 7.89729C449.385 13.6829 448.919 19.4678 448.453 25.2534C448.327 26.8189 447.811 28.9487 448.031 30.4935C448.266 32.142 447.764 31.966 449.677 31.7317C452.123 31.4312 454.578 30.7525 456.999 30.2672C461.352 29.3944 465.981 29.1455 470.242 27.8617C472.416 27.2064 474.498 27.1241 476.705 26.7279C479.129 26.2928 481.487 25.487 483.935 25.2099ZM445.503 36.3942C445.503 29.877 446.148 23.4476 446.679 16.9605C447.156 11.1241 447.341 5.5607 449.036 0C450.62 3.23214 455.007 4.52392 457.722 6.18718C461.462 8.47892 465.446 10.1663 469.274 12.2539C473.035 14.304 476.657 16.658 480.422 18.7034C482.331 19.7409 484.269 20.7087 486.174 21.7542C487.367 22.4088 490.196 23.4623 490.938 24.6778C493.19 28.367 485.48 28.7238 483.992 29.0491C479.529 30.027 475.014 30.5778 470.559 31.5831C466.406 32.5215 462.245 33.3923 458.077 34.243C453.952 35.085 449.701 36.3942 445.503 36.3942Z" fill="black"/>
<path fill-rule="evenodd" clip-rule="evenodd" d="M95.1876 197.733C99.6608 197.21 104.116 196.458 108.584 195.961C112.815 195.491 116.558 194.99 120.424 192.812C115.144 191.024 109.853 189.33 104.529 187.714C101.888 186.913 99.2533 186.065 96.6008 185.317C94.5489 184.737 92.7603 184.404 91.9715 181.888C91.0534 178.959 93.6064 179.403 95.1977 180.147C97.3926 181.173 99.7836 181.811 102.058 182.664C107.136 184.569 112.244 186.32 117.369 188.052C118.962 188.59 128.193 190.58 124.867 194.04C123.444 195.521 120.268 196.335 118.527 197.398C116.295 198.762 113.865 199.306 111.381 199.848C106.206 200.98 100.835 201.414 95.5951 202.395C92.9194 202.897 90.2443 203.398 87.5692 203.899C86.0016 204.192 85.3981 204.164 84.9888 202.2C84.6909 200.773 85.0794 199.345 85.3653 197.963C86.091 194.451 86.8983 190.957 87.6973 187.466C88.0011 186.134 88.5391 180.279 89.5967 179.638C91.9959 178.185 90.1448 186.291 89.9667 187.284C89.2934 191.028 88.4939 194.746 88.134 198.546C90.4904 198.306 92.8402 198.058 95.1876 197.733Z" fill="black"/>
<path fill-rule="evenodd" clip-rule="evenodd" d="M158.615 227.542C159.502 230.045 158.028 230.606 156.24 231.473C153.92 232.598 151.638 233.786 149.276 234.799C144.306 236.929 139.301 238.908 134.45 241.373C125.198 246.074 115.821 250.587 106.712 255.621C104.449 256.872 102.183 258.118 99.8998 259.323C97.538 260.569 94.8296 262.666 92.3028 263.378C90.099 263.999 89.869 262.236 91.175 260.613C92.8587 258.518 95.4617 256.955 97.5762 255.499C106.278 249.507 115.776 244.629 125.281 240.506C136.266 235.741 147.282 231.169 158.615 227.542Z" fill="black"/>
<path fill-rule="evenodd" clip-rule="evenodd" d="M182.771 85.4942C182.453 77.8813 183.359 70.2478 182.819 62.655C173.527 71.909 178.105 86.2103 183.45 96.2515L182.771 85.4942ZM186.793 85.0591C186.852 88.7778 187.04 92.4946 186.718 96.1946C186.38 100.079 188.002 102.079 190.116 104.94C188.321 106.987 184.202 102.214 183.064 100.808C180.722 97.9107 178.979 94.0621 177.429 90.5837C174.125 83.1737 171.851 75.2402 174.494 67.1047C175.474 64.0894 176.673 59.9898 179.268 58.2342C182.117 56.3065 184.296 59.0253 185.478 61.8217C188.364 68.6448 186.164 77.7354 186.793 85.0591Z" fill="black"/>
<path fill-rule="evenodd" clip-rule="evenodd" d="M285.23 463.478C289.515 463.859 293.735 464.235 298.02 464.54C297.281 457.942 296.541 451.343 295.802 444.744C293.322 445.389 290.843 446.034 288.364 446.678C287.192 446.982 285.395 447.063 284.358 447.72C283.97 447.82 283.581 447.921 283.194 448.022C283.183 448.879 283.175 449.735 283.168 450.592C283.139 453.126 283.074 455.657 282.98 458.189C282.941 459.25 282.611 460.804 282.837 461.855C282.436 462.917 282.691 463.369 283.604 463.21C284.147 463.299 284.688 463.389 285.23 463.478ZM282.281 468.248C278.922 466.369 279.84 460.629 279.846 456.975C279.85 454.651 279.996 452.342 280.05 450.02C280.087 448.425 279.763 446.45 280.251 444.909C281.121 442.167 285.374 442.241 287.561 442.433C289.183 442.575 290.54 442.483 292.202 442.363C293.022 442.305 293.935 442.48 294.74 442.208C294.914 442.149 296.552 440.866 296.48 440.863C299.417 440.989 299.457 448.903 299.647 450.911C300.119 455.86 300.545 460.818 300.929 465.778C301.031 467.091 301.465 468.575 300.355 469.324C299.354 470 296.701 469.332 295.594 469.293C291.132 469.142 286.694 468.36 282.281 468.248Z" fill="black"/>
<path fill-rule="evenodd" clip-rule="evenodd" d="M491.93 174.206C493.872 176.169 492.939 178.195 492.303 180.647C491.921 182.119 489.82 186.951 490.4 188.328C491.07 189.92 494.217 190.311 495.563 190.814C497.907 191.69 500.261 192.569 502.479 193.803C503.464 194.351 507.014 195.611 507.679 196.634C508.061 197.22 508.2 197.679 507.913 198.435C507.41 199.762 506.692 199.059 505.465 198.775C499.859 197.474 494.301 195.81 489.102 193.066C487.652 196.845 486.425 200.705 485.199 204.583C484.84 205.72 484.497 208.302 483.132 208.486C481.467 208.71 481.444 206.205 481.555 204.854C481.716 202.881 482.626 200.777 483.176 198.909C483.629 197.367 485.219 194.156 485.023 192.567C484.889 191.473 484.296 191.55 483.238 191.12C482.239 190.714 481.239 190.311 480.241 189.9C478.64 189.243 477.046 188.583 475.488 187.802C474.633 187.374 472.843 186.873 472.224 185.984C471.865 185.469 471.465 183.612 471.918 183.098C472.978 181.893 480.027 185.134 481.477 185.577C482.439 185.871 483.405 186.095 484.338 186.48C484.691 186.626 485.11 187.221 485.491 187.243C487.113 187.335 487.242 185.934 487.745 184.431C488.913 180.94 490.182 177.378 491.93 174.206Z" fill="black"/>
<path fill-rule="evenodd" clip-rule="evenodd" d="M87.7551 243.678C86.8906 241.297 96.0664 238.421 97.7698 237.619C101.927 235.664 106.381 234.482 110.686 232.988C114.919 231.52 119.134 229.939 123.297 228.24C124.585 227.714 133.856 222.642 134.341 223.384C135.948 225.837 116.492 233.545 114.596 234.312C105.793 237.873 96.7027 240.607 87.7551 243.678Z" fill="black"/>
<path fill-rule="evenodd" clip-rule="evenodd" d="M482.408 57.4966C480.029 57.5234 476.599 58.2811 474.416 57.1968C477.08 57.2965 479.744 57.3969 482.408 57.4966Z" fill="black"/>
<path fill-rule="evenodd" clip-rule="evenodd" d="M148.693 131.495L143.404 131.474C145.169 131.014 146.932 130.736 148.693 131.495Z" fill="black"/>
<path fill-rule="evenodd" clip-rule="evenodd" d="M424.113 129.908C425.36 129.901 426.607 129.893 427.846 129.885C426.596 129.893 425.354 129.901 424.113 129.908Z" fill="black"/>
<path fill-rule="evenodd" clip-rule="evenodd" d="M533.148 166.198C533.139 167.696 533.13 169.195 533.119 170.688C533.127 169.187 533.137 167.692 533.148 166.198Z" fill="black"/>
<path fill-rule="evenodd" clip-rule="evenodd" d="M287.562 442.433C286.237 442.541 284.913 442.648 283.59 442.755C284.915 442.648 286.238 442.54 287.562 442.433Z" fill="black"/>
<path fill-rule="evenodd" clip-rule="evenodd" d="M295.025 156.814C293.68 156.937 292.334 157.06 290.991 157.182C292.336 157.059 293.68 156.937 295.025 156.814Z" fill="black"/>
<path fill-rule="evenodd" clip-rule="evenodd" d="M434.218 129.415C435.17 129.413 436.122 129.411 437.066 129.409C436.112 129.411 435.165 129.414 434.218 129.415Z" fill="black"/>
<path fill-rule="evenodd" clip-rule="evenodd" d="M242.695 159.738C241.512 159.858 240.328 159.978 239.146 160.098C240.329 159.978 241.512 159.858 242.695 159.738Z" fill="black"/>
<path fill-rule="evenodd" clip-rule="evenodd" d="M294.943 64.8798C293.76 64.8879 292.576 64.8959 291.394 64.9039C292.573 64.2012 293.757 64.3825 294.943 64.8798Z" fill="black"/>
<path fill-rule="evenodd" clip-rule="evenodd" d="M78.9855 294.757C78.0013 294.698 77.1993 295.234 76.644 294.18C77.5526 293.384 78.0769 294.301 78.9855 294.757Z" fill="black"/>
<path fill-rule="evenodd" clip-rule="evenodd" d="M261.528 205.996L258.456 205.607L261.528 205.996Z" fill="black"/>
<path fill-rule="evenodd" clip-rule="evenodd" d="M282.281 468.249C282.959 468.266 283.637 468.283 284.308 468.3C283.627 468.282 282.954 468.265 282.281 468.249Z" fill="black"/>
<path fill-rule="evenodd" clip-rule="evenodd" d="M439.914 59.6665C438.857 59.7729 437.799 59.8794 436.742 59.9858C437.8 59.8787 438.857 59.7729 439.914 59.6665Z" fill="black"/>
<path fill-rule="evenodd" clip-rule="evenodd" d="M104.782 420.055C103.766 420.06 102.751 420.065 101.735 420.069C102.751 420.064 103.766 420.06 104.782 420.055Z" fill="black"/>
<path fill-rule="evenodd" clip-rule="evenodd" d="M23.1342 399.827C22.1089 399.829 21.0841 399.831 20.0593 399.833C21.0847 399.831 22.1089 399.829 23.1342 399.827Z" fill="black"/>
<path fill-rule="evenodd" clip-rule="evenodd" d="M282.201 157.764C281.16 157.88 280.119 157.994 279.078 158.109C280.12 157.994 281.16 157.88 282.201 157.764Z" fill="black"/>
<path fill-rule="evenodd" clip-rule="evenodd" d="M253.159 159.662C252.135 159.529 251.112 159.397 250.088 159.264C251.103 159.487 252.23 158.607 253.159 159.662Z" fill="black"/>
<path fill-rule="evenodd" clip-rule="evenodd" d="M345.908 205.843C346.546 205.762 347.441 205.511 348.098 205.628C348.012 206.05 346.153 205.842 345.908 205.843Z" fill="black"/>
<path fill-rule="evenodd" clip-rule="evenodd" d="M280.947 296.092C281.633 296.107 282.321 296.121 283.001 296.134C282.311 296.12 281.629 296.106 280.947 296.092Z" fill="black"/>
<path fill-rule="evenodd" clip-rule="evenodd" d="M218.898 204.18C217.894 204.289 216.892 204.398 215.888 204.507C216.892 204.398 217.894 204.289 218.898 204.18Z" fill="black"/>
<path fill-rule="evenodd" clip-rule="evenodd" d="M106.569 200.339C107.116 200.356 107.663 200.373 108.203 200.389C107.653 200.373 107.111 200.356 106.569 200.339Z" fill="black"/>
<path fill-rule="evenodd" clip-rule="evenodd" d="M254.428 205.029C253.57 205.01 252.711 204.99 251.854 204.971C252.712 204.99 253.57 205.01 254.428 205.029Z" fill="black"/>
<path fill-rule="evenodd" clip-rule="evenodd" d="M95.1877 197.733C94.3202 197.853 93.4527 197.973 92.5864 198.093C93.4545 197.973 94.3208 197.853 95.1877 197.733Z" fill="black"/>
<path fill-rule="evenodd" clip-rule="evenodd" d="M214.182 189.454C214.718 189.478 215.254 189.502 215.783 189.528C215.244 189.506 214.713 189.48 214.182 189.454Z" fill="black"/>
<path fill-rule="evenodd" clip-rule="evenodd" d="M255.053 290.675C255.597 290.635 256.14 290.595 256.677 290.554C256.131 290.594 255.592 290.635 255.053 290.675Z" fill="black"/>
<path fill-rule="evenodd" clip-rule="evenodd" d="M296.664 211.414C295.79 211.291 294.914 211.169 294.041 211.046C294.915 211.169 295.79 211.291 296.664 211.414Z" fill="black"/>
<path fill-rule="evenodd" clip-rule="evenodd" d="M85.5625 363.159C86.1303 363.15 86.6981 363.142 87.2593 363.131C86.6897 363.14 86.1255 363.149 85.5625 363.159Z" fill="black"/>
<path fill-rule="evenodd" clip-rule="evenodd" d="M38.9437 283.899C38.0393 283.796 37.1349 283.693 36.2299 283.591C37.1343 283.693 38.0387 283.796 38.9437 283.899Z" fill="black"/>
<path fill-rule="evenodd" clip-rule="evenodd" d="M19.6456 399.967C18.7567 400.082 17.8678 400.197 16.9783 400.313C17.8684 400.197 18.7567 400.082 19.6456 399.967Z" fill="black"/>
<path fill-rule="evenodd" clip-rule="evenodd" d="M504.23 129.745C504.161 130.609 504.091 131.472 504.02 132.332C504.089 131.468 504.16 130.607 504.23 129.745Z" fill="black"/>
<path fill-rule="evenodd" clip-rule="evenodd" d="M110.094 419.192C109.2 419.307 108.306 419.423 107.412 419.538C108.306 419.422 109.201 419.307 110.094 419.192Z" fill="black"/>
<path fill-rule="evenodd" clip-rule="evenodd" d="M101.321 420.188C100.416 420.898 99.5113 420.938 98.6057 420.191C99.5107 420.189 100.416 420.189 101.321 420.188Z" fill="black"/>
<path fill-rule="evenodd" clip-rule="evenodd" d="M84.1619 421.037C83.2843 421.038 82.4073 421.039 81.5303 421.039C82.4079 421.039 83.2849 421.038 84.1619 421.037Z" fill="black"/>
<path fill-rule="evenodd" clip-rule="evenodd" d="M186.793 85.0591C186.718 84.1843 186.643 83.3102 186.568 82.4387C186.643 83.3149 186.718 84.187 186.793 85.0591Z" fill="black"/>
<path fill-rule="evenodd" clip-rule="evenodd" d="M282.631 65.525C281.749 65.6475 280.867 65.7693 279.986 65.8911C280.868 65.7693 281.75 65.6475 282.631 65.525Z" fill="black"/>
<path fill-rule="evenodd" clip-rule="evenodd" d="M285.756 65.0619C284.86 65.1743 283.963 65.2874 283.068 65.4006C283.964 65.2874 284.86 65.1743 285.756 65.0619Z" fill="black"/>
<path fill-rule="evenodd" clip-rule="evenodd" d="M146.579 181.627C147.131 181.618 147.682 181.608 148.226 181.599C147.672 181.608 147.126 181.618 146.579 181.627Z" fill="black"/>
<path fill-rule="evenodd" clip-rule="evenodd" d="M226.414 171.939C229.34 171.396 232.266 171.216 235.191 171.937L226.414 171.939Z" fill="black"/>
<path fill-rule="evenodd" clip-rule="evenodd" d="M304.455 134.961C305.064 133.174 305.215 132.503 306.702 131.578C306.083 133.315 305.986 134.244 304.455 134.961Z" fill="black"/>
<path fill-rule="evenodd" clip-rule="evenodd" d="M375.811 311.821C375.87 313.679 375.929 315.537 375.987 317.393C375.928 315.535 375.87 313.678 375.811 311.821Z" fill="black"/>
<path fill-rule="evenodd" clip-rule="evenodd" d="M481.929 61.7882C480.605 61.8217 479.282 61.8558 477.964 61.8893C479.289 61.8558 480.609 61.8217 481.929 61.7882Z" fill="black"/>
<path fill-rule="evenodd" clip-rule="evenodd" d="M305.587 344.845C305.634 346.394 305.68 347.943 305.726 349.491C305.679 347.941 305.633 346.393 305.587 344.845Z" fill="black"/>
<path fill-rule="evenodd" clip-rule="evenodd" d="M143.377 295.219C144.714 295.23 146.051 295.24 147.388 295.251C146.051 295.24 144.714 295.23 143.377 295.219Z" fill="black"/>
<path fill-rule="evenodd" clip-rule="evenodd" d="M257.035 215.655C256.229 215.664 255.424 215.672 254.626 215.683C255.434 215.675 256.234 215.665 257.035 215.655Z" fill="black"/>
<path fill-rule="evenodd" clip-rule="evenodd" d="M254.411 166.418C253.748 166.393 253.085 166.367 252.43 166.344C253.095 166.371 253.753 166.394 254.411 166.418Z" fill="black"/>
<path fill-rule="evenodd" clip-rule="evenodd" d="M159.659 294.75C160.705 294.636 161.75 294.521 162.795 294.406C161.75 294.521 160.705 294.636 159.659 294.75Z" fill="black"/>
<path fill-rule="evenodd" clip-rule="evenodd" d="M136.879 295.278C137.903 295.26 138.927 295.242 139.951 295.224C138.927 295.242 137.903 295.26 136.879 295.278Z" fill="black"/>
<path fill-rule="evenodd" clip-rule="evenodd" d="M147.813 295.248C148.873 295.145 149.934 295.041 150.995 294.937C149.934 295.04 148.873 295.145 147.813 295.248Z" fill="black"/>
<path fill-rule="evenodd" clip-rule="evenodd" d="M151.68 297.137C151.153 297.134 150.626 297.13 150.105 297.127C150.635 297.131 151.158 297.134 151.68 297.137Z" fill="black"/>
<path fill-rule="evenodd" clip-rule="evenodd" d="M375.348 270.517C375.427 269.644 375.506 268.771 375.584 267.901C375.506 268.775 375.427 269.646 375.348 270.517Z" fill="black"/>
<path fill-rule="evenodd" clip-rule="evenodd" d="M217.004 182.254C217.669 182.318 218.334 182.381 219 182.446C218.257 182.488 217.514 182.531 216.771 182.573C216.775 182.402 216.853 182.296 217.004 182.254Z" fill="black"/>
<path fill-rule="evenodd" clip-rule="evenodd" d="M387.891 329.114C387.849 328.319 387.806 327.523 387.765 326.732C387.807 327.53 387.85 328.322 387.891 329.114Z" fill="black"/>
<path fill-rule="evenodd" clip-rule="evenodd" d="M228.943 179.22C228.409 179.232 227.874 179.243 227.347 179.255C227.884 179.243 228.413 179.231 228.943 179.22Z" fill="black"/>
<path fill-rule="evenodd" clip-rule="evenodd" d="M424.416 279.596C425.306 279.713 426.196 279.83 427.086 279.946C426.196 279.83 425.306 279.713 424.416 279.596Z" fill="black"/>
<path fill-rule="evenodd" clip-rule="evenodd" d="M239.547 213.711C238.999 213.72 238.452 213.729 237.911 213.739C238.46 213.731 239.004 213.721 239.547 213.711Z" fill="black"/>
<path fill-rule="evenodd" clip-rule="evenodd" d="M207.868 93.3519C208.443 93.6966 208.145 95.212 207.584 95.0674C207.679 94.4951 207.774 93.9235 207.868 93.3519Z" fill="black"/>
<path fill-rule="evenodd" clip-rule="evenodd" d="M504.276 273.452C503.747 273.437 503.219 273.421 502.699 273.406C503.228 273.422 503.752 273.437 504.276 273.452Z" fill="black"/>
<path fill-rule="evenodd" clip-rule="evenodd" d="M182.771 85.4942C182.715 84.1589 182.66 82.8243 182.604 81.493C182.66 82.8297 182.716 84.1616 182.771 85.4942Z" fill="black"/>
<path fill-rule="evenodd" clip-rule="evenodd" d="M282.791 463.076C283.605 463.21 284.418 463.344 285.232 463.478C284.417 463.344 283.604 463.21 282.791 463.076Z" fill="black"/>
<path fill-rule="evenodd" clip-rule="evenodd" d="M277.413 119.324C274.544 119.988 271.598 120.334 268.797 121.311C268.098 121.554 265.804 123.051 264.967 122.657C263.695 122.056 264.338 120.516 264.874 119.694C266.307 117.496 268.872 116.265 271.223 116.292C273.57 116.32 276.792 116.224 277.413 119.324Z" fill="black"/>
<path fill-rule="evenodd" clip-rule="evenodd" d="M269.442 125.222C272.601 127.705 275.014 128.929 275.282 123.346C278.705 123.87 277.171 130.064 274.581 130.531C271.761 131.039 269.88 127.875 269.442 125.222Z" fill="black"/>
</svg>
